<?xml version="1.0" encoding="utf-8"?>
<!-- Generator: Adobe Illustrator 27.7.0, SVG Export Plug-In . SVG Version: 6.00 Build 0)  -->
<svg version="1.1" id="Layer_1" xmlns="http://www.w3.org/2000/svg" xmlns:xlink="http://www.w3.org/1999/xlink" x="0px" y="0px"
	 viewBox="0 0 60 60" style="enable-background:new 0 0 60 60;" xml:space="preserve">
<style type="text/css">
	.st0{fill:#FFFFFF;}
	.st1{fill:#E2211C;}
</style>
<g>
	<path class="st0" d="M34.5,28.1c1.3-3.7,0.5-7.9-2.4-10.9c-3.3-3.3-8.3-3.9-12.3-1.8l7,7l-4.2,4.2l-7-7c-1.1,2-1.5,4.2-1.2,6.4
		c0.3,2.2,1.3,4.3,2.9,5.9c2.9,2.9,7.2,3.7,10.9,2.4l10.2,10.2c0.6,0.6,1.5,0.6,2.1,0l4.2-4.2c0.6-0.6,0.6-1.5,0-2.1L34.5,28.1z"/>
	<path class="st1" d="M30,0C13.4,0,0,13.4,0,30s13.4,30,30,30s30-13.4,30-30S46.6,0,30,0z M44.7,40.5l-4.2,4.2
		c-0.6,0.6-1.5,0.6-2.1,0L28.1,34.4c-3.7,1.3-7.9,0.5-10.9-2.4c-1.6-1.6-2.6-3.6-2.9-5.9c-0.3-2.2,0.1-4.5,1.2-6.4l7,7l4.2-4.2l-7-7
		c4-2.1,9-1.6,12.3,1.8c2.9,2.9,3.7,7.2,2.4,10.9l10.2,10.2C45.3,38.9,45.3,39.9,44.7,40.5z"/>
</g>
</svg>
