<svg width="61" height="61" viewBox="0 0 61 61" fill="none" xmlns="http://www.w3.org/2000/svg">
<path d="M30.5 53.375C24.1035 53.375 18.6914 52.3897 14.2638 50.419C9.83625 48.4484 7.62331 46.0448 7.625 43.2083V17.7917C7.625 14.9958 9.85997 12.6024 14.3299 10.6115C18.7999 8.62049 24.1899 7.625 30.5 7.625C36.8118 7.625 42.2027 8.62049 46.6726 10.6115C51.1426 12.6024 53.3767 14.9958 53.375 17.7917V43.2083C53.375 46.0465 51.1612 48.4509 46.7336 50.4216C42.306 52.3922 36.8948 53.3767 30.5 53.375ZM30.5 22.9385C34.2701 22.9385 38.0615 22.398 41.874 21.317C45.6865 20.2359 47.8257 19.082 48.2917 17.8552C47.8257 16.6267 45.6966 15.4618 41.9045 14.3604C38.1123 13.259 34.3108 12.7083 30.5 12.7083C26.6451 12.7083 22.864 13.2489 19.1565 14.3299C15.4491 15.411 13.2997 16.5852 12.7083 17.8527C13.3014 19.1235 15.4516 20.2884 19.1591 21.3475C22.8665 22.4065 26.6468 22.9368 30.5 22.9385ZM30.5 35.5833C32.2792 35.5833 33.9948 35.4986 35.6469 35.3292C37.299 35.1597 38.8773 34.9157 40.382 34.5972C41.885 34.2803 43.3041 33.8889 44.6393 33.4229C45.9745 32.9569 47.192 32.4274 48.2917 31.8344V24.2094C47.1903 24.8024 45.972 25.3319 44.6368 25.7979C43.3015 26.2639 41.8824 26.6562 40.3795 26.9747C38.8765 27.2916 37.299 27.5347 35.6469 27.7042C33.9948 27.8736 32.2792 27.9583 30.5 27.9583C28.7208 27.9583 26.984 27.8736 25.2896 27.7042C23.5951 27.5347 21.9956 27.2907 20.4909 26.9722C18.9879 26.6553 17.5799 26.2639 16.2667 25.7979C14.9535 25.3319 13.7674 24.8024 12.7083 24.2094V31.8344C13.7674 32.4274 14.9535 32.9569 16.2667 33.4229C17.5799 33.8889 18.9888 34.2812 20.4935 34.5997C21.9964 34.9166 23.5951 35.1597 25.2896 35.3292C26.984 35.4986 28.7208 35.5833 30.5 35.5833ZM30.5 48.2917C32.4486 48.2917 34.4286 48.1434 36.4399 47.8469C38.4512 47.5504 40.3049 47.1581 42.001 46.6701C43.6955 46.1838 45.1146 45.6331 46.2583 45.018C47.4021 44.4029 48.0799 43.7785 48.2917 43.1448V36.9177C47.1903 37.5108 45.972 38.0403 44.6368 38.5063C43.3015 38.9722 41.8824 39.3645 40.3795 39.683C38.8765 39.9999 37.299 40.2431 35.6469 40.4125C33.9948 40.5819 32.2792 40.6667 30.5 40.6667C28.7208 40.6667 26.984 40.5819 25.2896 40.4125C23.5951 40.2431 21.9956 39.9991 20.4909 39.6805C18.9879 39.3636 17.5799 38.9722 16.2667 38.5063C14.9535 38.0403 13.7674 37.5108 12.7083 36.9177V43.2083C12.9201 43.8438 13.5878 44.458 14.7112 45.051C15.8346 45.6441 17.2427 46.1846 18.9354 46.6726C20.6299 47.1589 22.4938 47.5504 24.5271 47.8469C26.5604 48.1434 28.5514 48.2917 30.5 48.2917Z" fill="url(#paint0_linear_1377_810)"/>
<defs>
<linearGradient id="paint0_linear_1377_810" x1="30.5" y1="7.625" x2="30.5" y2="53.375" gradientUnits="userSpaceOnUse">
<stop stop-color="white"/>
<stop offset="1" stop-color="white" stop-opacity="0.85"/>
</linearGradient>
</defs>
</svg>
