<?xml version="1.0" encoding="utf-8"?>
<!-- Generator: Adobe Illustrator 27.4.0, SVG Export Plug-In . SVG Version: 6.00 Build 0)  -->
<svg version="1.1" id="Layer_1" xmlns="http://www.w3.org/2000/svg" xmlns:xlink="http://www.w3.org/1999/xlink" x="0px" y="0px"
	 viewBox="0 0 512 233" style="enable-background:new 0 0 512 233;" xml:space="preserve">
<style type="text/css">
	.Drop_x0020_Shadow{fill:none;}
	.Round_x0020_Corners_x0020_2_x0020_pt{fill:#FFFFFF;stroke:#000000;stroke-miterlimit:10;}
	.Live_x0020_Reflect_x0020_X{fill:none;}
	.Bevel_x0020_Soft{fill:url(#SVGID_1_);}
	.Dusk{fill:#FFFFFF;}
	.Foliage_GS{fill:#FFDD00;}
	.Pompadour_GS{fill-rule:evenodd;clip-rule:evenodd;fill:#44ADE2;}
	.st0{fill:#279646;}
	.st1{fill:#E12827;}
</style>
<linearGradient id="SVGID_1_" gradientUnits="userSpaceOnUse" x1="-56.8464" y1="-250.9664" x2="-56.1393" y2="-250.2593">
	<stop  offset="0" style="stop-color:#DEDFE3"/>
	<stop  offset="0.1738" style="stop-color:#D8D9DD"/>
	<stop  offset="0.352" style="stop-color:#C9CACD"/>
	<stop  offset="0.5323" style="stop-color:#B4B5B8"/>
	<stop  offset="0.7139" style="stop-color:#989A9C"/>
	<stop  offset="0.8949" style="stop-color:#797C7E"/>
	<stop  offset="1" style="stop-color:#656B6C"/>
</linearGradient>
<g>
	<path class="st0" d="M408.9,196.7l-0.6-0.9c0.1,0.3,0.1,0.6,0.3,0.8C408.7,196.6,408.8,196.7,408.9,196.7z"/>
	<path d="M424.5,64.5c40.4,24.1,53.7,76.3,29.6,116.8c-8.6,14.4-20.8,25.4-34.8,32.4l7.2,11.8c3.4-2.1,6.8-4.1,10.3-6.1
		c1.5-0.9,4-1.5,5.5-0.9c9.5,4,18.9,8.3,28.3,12.6c6.6,3.1,8.9,2.6,12.8-3.7c4.5-7.3,8.9-14.8,13.3-22.2c4.6-7.7,9.2-15.5,13.8-23.2
		c2.5-4.1,2.2-7.3-1.9-10.4c-8.2-6.3-16.1-12.9-24.3-19.2c-3-2.3-4.6-4.6-4.1-8.7c0.7-6.3,0.3-12.6,1-18.9c0.2-2.3,1.6-5.1,3.3-6.5
		c7.3-5.8,15-11.2,22.5-16.8c5.5-4,6.2-6.7,2.9-12.5c-8-14.6-16.1-29.1-24.3-43.7c-2.8-5-6.2-6.2-11.5-3.8c-3.3,1.5-6.4,3.4-9.7,5
		c-6.7,3.3-13.5,9.2-20,9c-6.6-0.3-13.1-6.5-19.3-10.6c-1.9-1.2-3.5-4-3.7-6.2c-1-9.7-1.4-19.5-2.1-29.2c-0.4-5-2.2-8.9-8.3-9
		c-17.2-0.1-34.5-0.3-51.7-0.5c-5.1-0.1-7.8,2.1-8.4,7.3c-1.2,9.7-2.8,19.3-3.9,29c-0.4,3-1.6,4.4-4.4,5.7
		c-4.5,2.2-8.9,4.5-13.1,7.3l5.1,16.9C361,49.2,395.7,47.4,424.5,64.5z"/>
	<path class="st1" d="M401.4,75.8h-96.3c0.9,2.9,1.5,5.7,1.9,8.2c0.3,2.6,0.5,5.5,0.5,8.8v92.6c0,3.5-0.2,6.5-0.5,9
		c-0.3,2.4-0.9,5.1-1.9,8h42c-0.9-2.9-1.5-5.6-1.9-8.2c-0.3-2.6-0.5-5.5-0.5-8.8v-27.7h56.7c20.4,0,30.5-8.6,30.5-25.9v-30.1
		C431.9,84.4,421.7,75.8,401.4,75.8z M395.8,129.9c0,4.6-0.6,7.7-1.9,9.2c-1.3,1.5-3.9,2.3-7.8,2.3h-41.4V92h41.4
		c4,0,6.6,0.8,7.8,2.3c1.2,1.5,1.9,4.6,1.9,9.4V129.9z"/>
	<path d="M12.3,120h13L41.9,152h13l-17.5-33.7c4-1.7,7.2-4.3,9.6-7.9c2.5-3.7,3.8-7.7,3.8-12.2c0-6.1-2.2-11.2-6.5-15.5
		c-4.3-4.3-9.4-6.5-15.5-6.5h-28V152h11.5V120z M12.3,87.7h16.5c2.9,0,5.3,1,7.4,3.1c2,2.1,3,4.5,3,7.4c0,2.9-1,5.3-3,7.3
		c-2,2.1-4.5,3.1-7.4,3.1H12.3V87.7z"/>
	<polygon points="100,140.5 72.9,140.5 72.9,119.7 93.8,119.7 93.8,108.2 72.9,108.2 72.9,87.7 100,87.7 100,76.2 61.4,76.2 
		61.4,152 100,152 	"/>
	<path d="M159.3,98.2c0-6.1-2.2-11.2-6.5-15.5c-4.3-4.3-9.4-6.5-15.5-6.5h-28V152h11.5V120h16.5c6,0,11.2-2.1,15.5-6.4
		C157.2,109.4,159.3,104.2,159.3,98.2z M144.8,105.5c-2.1,2.1-4.5,3.1-7.4,3.1h-16.5V87.7h16.5c2.9,0,5.3,1,7.4,3.1
		c2,2.1,3,4.5,3,7.4C147.8,101,146.8,103.5,144.8,105.5z"/>
	<path d="M164.1,134.3h25.7V152h11.5V76.2h-14.1L139.4,152H153L164.1,134.3z M189.9,93.6v29.2h-18.5L189.9,93.6z"/>
	<rect x="214.5" y="76.3" width="11.5" height="75.7"/>
	<path d="M292,152l-17.5-33.7c4-1.7,7.2-4.3,9.6-7.9c2.5-3.7,3.8-7.7,3.8-12.2c0-6.1-2.2-11.2-6.5-15.5c-4.3-4.3-9.4-6.5-15.5-6.5
		h-28V152h11.5V120h13L279,152H292z M265.9,108.6h-16.5V87.7h16.5c2.9,0,5.3,1,7.4,3.1c2,2.1,3,4.5,3,7.4c0,2.9-1,5.3-3,7.3
		C271.2,107.5,268.8,108.6,265.9,108.6z"/>
	<path d="M15,177.6c-5.8-1.6-8.6-3.7-8.5-6.4c0.1-2.3,1.2-3.9,3.3-4.8c1.4-0.6,3-0.8,4.9-0.7c2.7,0.1,4.9,1,6.4,2.6l4.7-4.4
		c-2.7-2.9-6.3-4.5-10.8-4.7c-3.7-0.2-6.9,0.5-9.5,2.2c-3.5,2.1-5.3,5.3-5.5,9.5c-0.3,6,4.1,10.3,13.1,12.9c5.8,1.6,8.6,3.8,8.5,6.4
		c-0.1,1.4-0.8,2.7-2.1,3.8c-1.6,1.3-3.6,1.9-6.1,1.8c-1.6-0.1-3.1-0.5-4.4-1.1c-1.5-0.8-2.5-1.9-3-3.2l-6,2.2
		c1,2.6,2.8,4.7,5.5,6.2c2.4,1.4,4.9,2.1,7.7,2.2c0.3,0,0.5,0,0.8,0c3.7,0,6.9-1.1,9.6-3.2c2.9-2.3,4.4-5.1,4.5-8.5
		c0.1-2.4-0.6-4.5-2.1-6.5C23.9,181.2,20.2,179.1,15,177.6z"/>
	<path d="M52.5,159.2c-5.9,0-11,2.1-15.2,6.3c-4.2,4.2-6.3,9.3-6.3,15.2c0,5.9,2.1,11,6.3,15.2c4.2,4.2,9.3,6.3,15.2,6.3
		c5.9,0,11-2.1,15.2-6.3c4.2-4.2,6.3-9.3,6.3-15.2c0-5.9-2.1-11-6.3-15.2C63.5,161.3,58.4,159.2,52.5,159.2z M63.1,191.4
		c-2.9,2.9-6.5,4.4-10.7,4.4c-4.2,0-7.7-1.5-10.7-4.4c-2.9-2.9-4.4-6.5-4.4-10.7c0-4.2,1.5-7.7,4.4-10.7c2.9-2.9,6.5-4.4,10.7-4.4
		c4.2,0,7.7,1.5,10.7,4.4c2.9,2.9,4.4,6.5,4.4,10.7C67.5,184.9,66.1,188.5,63.1,191.4z"/>
	<polygon points="85.3,159.7 78.9,159.7 78.9,201.8 100.4,201.8 100.4,195.4 85.3,195.4 	"/>
	<path d="M129.5,187.2c0,2.4-0.8,4.4-2.5,6.1c-1.7,1.7-3.7,2.5-6.1,2.5c-2.4,0-4.4-0.8-6.1-2.5c-1.7-1.7-2.5-3.7-2.5-6.1v-27.6h-6.4
		v27.6c0,4.1,1.5,7.7,4.4,10.6c2.9,2.9,6.5,4.4,10.6,4.4c4.1,0,7.7-1.5,10.6-4.4c2.9-2.9,4.4-6.5,4.4-10.6v-27.6h-6.4V187.2z"/>
	<polygon points="141.6,166.1 150.6,166.1 150.6,201.8 157,201.8 157,166.1 165.9,166.1 165.9,159.7 141.6,159.7 	"/>
	<rect x="171.7" y="159.7" width="6.4" height="42.1"/>
	<path d="M204.3,159.2c-5.9,0-11,2.1-15.2,6.3c-4.2,4.2-6.3,9.3-6.3,15.2c0,5.9,2.1,11,6.3,15.2c4.2,4.2,9.3,6.3,15.2,6.3
		c5.9,0,11-2.1,15.2-6.3c4.2-4.2,6.3-9.3,6.3-15.2c0-5.9-2.1-11-6.3-15.2C215.3,161.3,210.3,159.2,204.3,159.2z M215,191.4
		c-2.9,2.9-6.5,4.4-10.7,4.4c-4.2,0-7.7-1.5-10.7-4.4c-2.9-2.9-4.4-6.5-4.4-10.7c0-4.2,1.5-7.7,4.4-10.7c2.9-2.9,6.5-4.4,10.7-4.4
		c4.2,0,7.7,1.5,10.7,4.4s4.4,6.5,4.4,10.7C219.4,184.9,218,188.5,215,191.4z"/>
	<polygon points="255.1,189.8 237.1,159.7 230.4,159.7 230.4,201.8 236.8,201.8 236.8,171.7 254.8,201.8 261.5,201.8 261.5,159.7 
		255.1,159.7 	"/>
	<path d="M281.2,177.6c-5.8-1.6-8.6-3.7-8.5-6.4c0.1-2.3,1.2-3.9,3.3-4.8c1.4-0.6,3-0.8,4.9-0.7c2.7,0.1,4.9,1,6.4,2.6l4.7-4.4
		c-2.7-2.9-6.3-4.5-10.8-4.7c-3.7-0.2-6.9,0.5-9.5,2.2c-3.5,2.1-5.3,5.3-5.5,9.5c-0.3,6,4.1,10.3,13.1,12.9c5.8,1.6,8.6,3.8,8.5,6.4
		c-0.1,1.4-0.8,2.7-2.2,3.8c-1.6,1.3-3.6,1.9-6.1,1.8c-1.6-0.1-3.1-0.5-4.4-1.1c-1.5-0.8-2.5-1.9-3-3.2l-6,2.2
		c1,2.6,2.8,4.7,5.5,6.2c2.4,1.4,4.9,2.1,7.7,2.2c0.3,0,0.5,0,0.8,0c3.7,0,6.9-1.1,9.6-3.2c2.9-2.3,4.4-5.1,4.5-8.5
		c0.1-2.4-0.6-4.5-2.1-6.5C290.1,181.2,286.4,179.1,281.2,177.6z"/>
	<path d="M290.5,75.8c-1.4,0-2.6,0.5-3.5,1.5c-1,1-1.5,2.2-1.5,3.5c0,1.4,0.5,2.6,1.5,3.6c1,1,2.2,1.5,3.6,1.5
		c1.4,0,2.6-0.5,3.6-1.5c1-1,1.5-2.2,1.5-3.6c0-1.4-0.5-2.6-1.5-3.5C293.1,76.3,291.9,75.8,290.5,75.8z M293.6,83.9
		c-0.8,0.9-1.9,1.3-3.1,1.3c-1.2,0-2.2-0.4-3.1-1.3c-0.8-0.8-1.3-1.9-1.3-3.1c0-1.2,0.4-2.2,1.3-3.1c0.8-0.9,1.9-1.3,3.1-1.3
		c1.2,0,2.2,0.4,3.1,1.3c0.8,0.8,1.3,1.9,1.3,3.1C294.9,82,294.4,83,293.6,83.9z"/>
	<path d="M292.7,83.2l0-0.4v-0.4c0-0.3-0.1-0.6-0.3-0.9c-0.2-0.3-0.5-0.5-0.9-0.5c0.3-0.1,0.6-0.1,0.8-0.3c0.4-0.2,0.5-0.6,0.5-1.1
		c0-0.7-0.3-1.2-0.9-1.4c-0.3-0.1-0.8-0.2-1.5-0.2h-1.9v5.5h1v-2.2h0.8c0.5,0,0.9,0.1,1.1,0.2c0.3,0.2,0.5,0.6,0.5,1.3v0.4l0,0.2
		l0,0.1l0,0.1h0.9l0-0.1L292.7,83.2z M291.3,80.6c-0.2,0.1-0.5,0.1-0.9,0.1h-0.9v-2h0.8c0.5,0,0.9,0.1,1.2,0.2
		c0.2,0.1,0.4,0.4,0.4,0.8C291.9,80.1,291.7,80.4,291.3,80.6z"/>
	<polygon points="434.2,30.5 437.1,30.5 437.1,40.3 438.2,40.3 438.2,30.5 441.1,30.5 441.1,29.2 434.2,29.2 	"/>
	<path d="M447,36.9c-0.2,0.8-0.4,1.4-0.5,1.8c-0.1-0.4-0.2-0.9-0.4-1.6l-2.1-7.9h-1.8v11.1h1.1v-9.5l2.5,9.5h1.1l2.6-9.3v9.3h1.1
		V29.2h-1.6L447,36.9z"/>
	<path class="st1" d="M390.3,187.6c1.7-0.2,2.9-0.8,3.6-1.6c0.7-0.8,1-2,1-3.4v-6.1c0-2-0.5-3.4-1.6-4.4c-1-1-2.5-1.5-4.4-1.5h-24
		c0.2,0.7,0.4,1.3,0.4,2c0.1,0.6,0.1,1.3,0.1,2.1v22.1c0,0.8,0,1.6-0.1,2.1c-0.1,0.6-0.2,1.2-0.4,1.9h10c-0.2-0.7-0.4-1.3-0.4-2
		c-0.1-0.6-0.1-1.3-0.1-2.1v-9.3h6.6l5.2,13.3h10.1c-0.9-0.8-1.6-1.9-2.2-3.2L390.3,187.6z M386.4,181.6c0,0.8-0.1,1.3-0.4,1.6
		c-0.2,0.3-0.6,0.4-1.2,0.4h-10.3v-9.1h10.3c1,0,1.6,0.7,1.6,2V181.6z"/>
	<path class="st1" d="M423.3,170.6h-17.9c-4,0-6.1,2-6.1,6.1v17.9c0,4.1,2,6.1,6.1,6.1h17.9c4,0,6-2,6-6.1v-17.9
		C429.4,172.6,427.4,170.6,423.3,170.6z M420.5,195.1c0,0.7-0.1,1.2-0.4,1.4c-0.3,0.3-0.7,0.4-1.3,0.4H410c-0.5,0-0.8-0.1-1.1-0.2
		c-0.1,0-0.2-0.1-0.3-0.2c-0.2-0.2-0.2-0.4-0.3-0.8c0-0.2-0.1-0.4-0.1-0.7v-18.8c0-0.7,0.1-1.2,0.4-1.4c0.3-0.3,0.7-0.4,1.3-0.4h8.8
		c0.7,0,1.1,0.1,1.4,0.4c0.2,0.2,0.3,0.7,0.3,1.4V195.1z"/>
</g>
</svg>
