<svg width="25" height="18" viewBox="0 0 25 18" fill="none" xmlns="http://www.w3.org/2000/svg">
<path d="M23.2143 0H1.78571C1.31211 0 0.85791 0.189642 0.523024 0.527208C0.188137 0.864773 0 1.32261 0 1.8V16.2C0 16.6774 0.188137 17.1352 0.523024 17.4728C0.85791 17.8104 1.31211 18 1.78571 18H23.2143C23.6879 18 24.1421 17.8104 24.477 17.4728C24.8119 17.1352 25 16.6774 25 16.2V1.8C25 1.32261 24.8119 0.864773 24.477 0.527208C24.1421 0.189642 23.6879 0 23.2143 0ZM21.25 1.8L12.5 7.902L3.75 1.8H21.25ZM1.78571 16.2V2.619L11.9911 9.738C12.1405 9.84251 12.3181 9.89852 12.5 9.89852C12.6819 9.89852 12.8595 9.84251 13.0089 9.738L23.2143 2.619V16.2H1.78571Z" fill="#626262"/>
</svg>
