<svg width="29" height="29" viewBox="0 0 29 29" fill="none" xmlns="http://www.w3.org/2000/svg">
<path d="M28.9831 21.9065C28.7246 23.8713 27.7596 25.6748 26.2685 26.9802C24.7774 28.2856 22.8621 29.0035 20.8804 29C9.36717 29 1.31208e-05 19.6329 1.31208e-05 8.11979C-0.00353941 6.13804 0.714422 4.22276 2.0198 2.73167C3.32518 1.24058 5.12871 0.275654 7.09353 0.0171067C7.59039 -0.0435605 8.09354 0.0580869 8.52788 0.306875C8.96222 0.555664 9.30445 0.938249 9.50348 1.39752L12.5659 8.23434V8.25174C12.7183 8.6033 12.7812 8.98713 12.7491 9.36894C12.717 9.75075 12.5908 10.1187 12.3818 10.4398C12.3557 10.479 12.3281 10.5152 12.2991 10.5515L9.28017 14.1301C10.3662 16.337 12.6747 18.6251 14.9106 19.7141L18.44 16.7111C18.4746 16.682 18.5109 16.6549 18.5487 16.6299C18.8696 16.4159 19.2388 16.2853 19.6229 16.2498C20.0069 16.2144 20.3938 16.2752 20.7484 16.4269L20.7673 16.4356L27.5983 19.4966C28.0584 19.6949 28.4419 20.0368 28.6916 20.4712C28.9412 20.9056 29.0434 21.4092 28.9831 21.9065Z" fill="#7D7EA3"/>
</svg>
