<svg width="52" height="36" viewBox="0 0 52 36" fill="none" xmlns="http://www.w3.org/2000/svg">
<path d="M20.8 25.7143L34.294 18L20.8 10.2857V25.7143ZM50.856 5.58C51.194 6.78857 51.428 8.40857 51.584 10.4657C51.766 12.5229 51.844 14.2971 51.844 15.84L52 18C52 23.6314 51.584 27.7714 50.856 30.42C50.206 32.7343 48.698 34.2257 46.358 34.8686C45.136 35.2029 42.9 35.4343 39.468 35.5886C36.088 35.7686 32.994 35.8457 30.134 35.8457L26 36C15.106 36 8.32 35.5886 5.642 34.8686C3.302 34.2257 1.794 32.7343 1.144 30.42C0.806 29.2114 0.572 27.5914 0.416 25.5343C0.234 23.4771 0.156 21.7029 0.156 20.16L0 18C0 12.3686 0.416 8.22857 1.144 5.58C1.794 3.26571 3.302 1.77429 5.642 1.13143C6.864 0.797143 9.1 0.565714 12.532 0.411428C15.912 0.231428 19.006 0.154286 21.866 0.154286L26 0C36.894 0 43.68 0.411429 46.358 1.13143C48.698 1.77429 50.206 3.26571 50.856 5.58Z" fill="#7D7EA3"/>
</svg>
