<svg width="24" height="32" viewBox="0 0 24 32" fill="none" xmlns="http://www.w3.org/2000/svg">
<path d="M12 22C17.5228 22 22 17.5228 22 12C22 6.47715 17.5228 2 12 2C6.47715 2 2 6.47715 2 12C2 17.5228 6.47715 22 12 22Z" stroke="#E12018" stroke-width="4" stroke-linecap="round" stroke-linejoin="round"/>
<path d="M4.85718 28.0483V19.1426C5.81003 20.0954 8.57146 21.9997 12 21.9997C15.4286 21.9997 18.19 20.0954 19.1429 19.1426V28.0483C19.1427 28.3009 19.0755 28.549 18.9482 28.7672C18.8208 28.9854 18.6379 29.1659 18.418 29.2904C18.1982 29.4148 17.9493 29.4788 17.6966 29.4756C17.444 29.4725 17.1967 29.4024 16.98 29.2726L12.7343 26.7269C12.5125 26.5939 12.2587 26.5237 12 26.5237C11.7414 26.5237 11.4876 26.5939 11.2657 26.7269L7.02003 29.2711C6.80343 29.4009 6.55629 29.471 6.30379 29.4742C6.05129 29.4774 5.80246 29.4136 5.58265 29.2893C5.36283 29.165 5.17988 28.9847 5.05245 28.7667C4.92501 28.5487 4.85763 28.3008 4.85718 28.0483Z" fill="#E12018" stroke="#E12018" stroke-width="4" stroke-linecap="round" stroke-linejoin="round"/>
</svg>
