<?xml version="1.0" encoding="utf-8"?>
<!-- Generator: Adobe Illustrator 23.0.3, SVG Export Plug-In . SVG Version: 6.00 Build 0)  -->
<svg version="1.1" id="Layer_1" xmlns="http://www.w3.org/2000/svg" xmlns:xlink="http://www.w3.org/1999/xlink" x="0px" y="0px"
	 viewBox="0 0 114.98 28.68" style="enable-background:new 0 0 114.98 28.68;" xml:space="preserve">
<style type="text/css">
	.st0{fill:#E1251B;}
</style>
<rect y="1.31" width="7.11" height="26.26"/>
<path d="M8.54,1.31h6.76l5.68,15.81l0.07-0.07c-0.28-3.03-0.8-6.03-0.8-9.05V1.31h6.83v26.26h-6.83l-5.29-15.15l-0.07,0.07
	c0.17,2.47,0.49,4.91,0.49,7.38v7.7H8.54V1.31z"/>
<path d="M28.51,1.31h6.76l5.68,15.81l0.07-0.07c-0.28-3.03-0.8-6.03-0.8-9.05V1.31h6.82v26.26h-6.82l-5.29-15.15l-0.07,0.07
	c0.17,2.47,0.49,4.91,0.49,7.38v7.7h-6.83V1.31H28.51z"/>
<path d="M82.47,27.57L76.44,1.31h7.45l1.67,10.8c0.31,2.12,0.49,4.21,0.77,6.34h0.07c0.32-2.12,0.42-4.21,0.8-6.34l1.95-10.8h7.7
	l-7.14,26.26H82.47z"/>
<path d="M103.53,18.62l-0.77-6.09c-0.21-1.64-0.35-3.31-0.52-4.95h-0.07c-0.21,1.64-0.39,3.31-0.66,4.95l-0.97,6.09H103.53z
	 M104.88,27.57l-0.52-3.38h-4.77L99,27.57h-7.32l6.31-26.26h8.67l5.57,26.26H104.88z"/>
<path d="M111.51,3.88V2.75h0.74c0.4,0,0.77,0.11,0.77,0.57c0,0.55-0.49,0.57-0.98,0.57L111.51,3.88L111.51,3.88z M111.51,4.23h0.68
	l0.92,1.46h0.48l-0.97-1.46c0.44-0.08,0.82-0.34,0.82-0.91c0-0.6-0.33-0.92-1.07-0.92h-1.26v3.29h0.41V4.23H111.51z M112.13,1.61
	c1.38,0,2.41,1.07,2.41,2.44s-1.03,2.44-2.41,2.44c-1.37,0-2.4-1.07-2.4-2.44C109.73,2.68,110.76,1.61,112.13,1.61 M112.13,1.2
	c-1.61,0-2.84,1.25-2.84,2.85s1.24,2.84,2.84,2.84c1.61,0,2.85-1.25,2.85-2.84C114.98,2.45,113.73,1.2,112.13,1.2"/>
<path d="M63.02,3.55c5.99,0,10.86,4.87,10.86,10.86s-4.87,10.86-10.86,10.86S52.16,20.4,52.16,14.41S57.03,3.55,63.02,3.55
	 M63.02,0.11c-7.9,0-14.31,6.4-14.31,14.3s6.41,14.3,14.31,14.3s14.3-6.4,14.3-14.3S70.92,0.11,63.02,0.11"/>
<path class="st0" d="M62.99,22.79c-4.61,0-8.36-3.75-8.36-8.36s3.75-8.36,8.36-8.36s8.36,3.75,8.36,8.36S67.6,22.79,62.99,22.79"/>
<path class="st0" d="M62.99,6.54c4.35,0,7.88,3.53,7.88,7.88s-3.53,7.88-7.88,7.88s-7.88-3.53-7.88-7.88S58.64,6.54,62.99,6.54
	 M62.99,5.59c-4.87,0-8.84,3.97-8.84,8.84s3.97,8.84,8.84,8.84s8.84-3.97,8.84-8.84C71.83,9.55,67.86,5.59,62.99,5.59"/>
</svg>
