<svg width="334" height="99" viewBox="0 0 334 99" fill="none" xmlns="http://www.w3.org/2000/svg">
<g clip-path="url(#clip0_2_32)">
<path fill-rule="evenodd" clip-rule="evenodd" d="M321.643 98.8922H12.3569C5.56267 98.8922 0 93.3092 0 86.598V12.402C0 5.58296 5.56267 0 12.3569 0H321.643C328.437 0 334 5.58296 334 12.402V86.598C334 93.3009 328.437 98.8922 321.643 98.8922Z" fill="black"/>
<path fill-rule="evenodd" clip-rule="evenodd" d="M321.643 2.00754C327.322 2.00754 332 6.70287 332 12.402V86.598C332 92.2971 327.322 96.9925 321.643 96.9925H12.3569C6.67851 96.9925 2.00025 92.2971 2.00025 86.598V12.402C2.00025 6.70287 6.67851 2.00754 12.3569 2.00754H321.643ZM321.643 0H12.3569C5.56267 0 0 5.58296 0 12.402V86.598C0 93.417 5.56267 99 12.3569 99H321.643C328.437 99 334 93.417 334 86.598V12.402C334 5.58296 328.437 0 321.643 0Z" fill="#A6A6A6"/>
<path d="M175.906 32.7428C173.683 32.7428 171.79 31.963 170.343 30.3952C168.897 28.9434 168.004 26.8198 168.12 24.6961C168.12 22.4646 168.897 20.5649 170.343 18.997C171.79 17.4291 173.683 16.6493 175.906 16.6493C178.129 16.6493 180.022 17.4291 181.469 18.997C182.915 20.5649 183.692 22.4646 183.692 24.6961C183.692 26.9276 182.915 28.8273 181.469 30.3952C180.022 31.963 178.129 32.7428 175.906 32.7428ZM109.551 32.7428C107.327 32.7428 105.435 31.963 103.988 30.3952C102.426 28.8273 101.649 26.9276 101.649 24.6961C101.649 22.4646 102.426 20.5649 103.988 18.997C105.55 17.4291 107.443 16.6493 109.551 16.6493C110.667 16.6493 111.667 16.8733 112.667 17.3213C113.667 17.7692 114.452 18.325 115.006 18.997L115.113 19.221L113.444 20.8967L113.221 20.6727C112.328 19.5528 110.997 18.997 109.328 18.997C107.881 18.997 106.542 19.5528 105.435 20.5649C104.327 21.5769 103.765 23.0204 103.765 24.6961C103.765 26.3718 104.319 27.7157 105.435 28.8273C106.55 29.8311 107.774 30.3952 109.328 30.3952C110.881 30.3952 112.22 29.8394 113.336 28.8273C114.006 28.1554 114.336 27.3756 114.452 26.2557H109.104V23.908H116.783V24.132C116.783 24.4638 116.89 24.9118 116.89 25.2519C116.89 27.3756 116.221 29.0513 114.998 30.3952C113.774 31.963 111.882 32.7428 109.542 32.7428H109.551ZM197.834 32.411H195.495L188.255 20.7888L188.362 22.9125V32.411H185.916V17.1056H188.585L188.693 17.2134L195.487 28.1637L195.38 26.04V17.0973H197.719L197.826 32.4027L197.834 32.411ZM158.309 32.411H155.862V19.3371H151.746V16.9894H162.433V19.3371H158.317V32.411H158.309ZM149.845 32.411H147.506V17.1056H149.845V32.411ZM136.488 32.411H134.149V19.3371H130.033V16.9894H140.72V19.3371H136.604V32.411H136.496H136.488ZM128.47 32.411H119.337V17.1056H128.47V19.4532H121.792V23.7006H127.917V25.9321H121.792V30.1795H128.47V32.411ZM172.112 28.8356C173.228 29.9555 174.451 30.4035 176.005 30.4035C177.559 30.4035 178.791 29.8477 179.898 28.8356C180.898 27.8318 181.46 26.3801 181.46 24.7044C181.46 23.0287 180.907 21.6848 179.898 20.5732C178.782 19.4532 177.559 19.0053 176.005 19.0053C174.451 19.0053 173.22 19.5611 172.112 20.5732C171.112 21.5769 170.55 23.0287 170.55 24.7044C170.55 26.3801 170.996 27.8318 172.112 28.8356Z" fill="white"/>
<path fill-rule="evenodd" clip-rule="evenodd" d="M167.889 53.7474C162.103 53.7474 157.424 58.2187 157.424 64.2496C157.424 70.2805 162.21 74.7519 167.889 74.7519C173.567 74.7519 178.353 70.2805 178.353 64.2496C178.353 58.2187 173.674 53.7474 167.889 53.7474ZM167.889 70.6207C164.657 70.6207 161.987 67.9412 161.987 64.2496C161.987 60.5581 164.772 57.8786 167.889 57.8786C171.005 57.8786 173.79 60.4502 173.79 64.2496C173.79 68.049 171.005 70.6207 167.889 70.6207ZM144.952 53.7474C139.166 53.7474 134.488 58.2187 134.488 64.2496C134.488 70.2805 139.273 74.7519 144.952 74.7519C150.63 74.7519 155.416 70.2805 155.416 64.2496C155.416 58.2187 150.738 53.7474 144.952 53.7474ZM144.952 70.6207C141.72 70.6207 139.05 67.9412 139.05 64.2496C139.05 60.5581 141.836 57.8786 144.952 57.8786C148.068 57.8786 150.853 60.4502 150.853 64.2496C150.853 68.049 148.068 70.6207 144.952 70.6207ZM117.676 56.9909V61.4623H128.363C128.032 63.9178 127.247 65.8175 125.916 67.0453C124.354 68.6131 121.908 70.2888 117.676 70.2888C111.105 70.2888 105.988 65.0377 105.988 58.4427C105.988 51.8477 111.113 46.5965 117.676 46.5965C121.238 46.5965 123.8 48.0483 125.693 49.8401L128.809 46.7127C126.14 44.141 122.577 42.2413 117.676 42.2413C108.658 42.2413 101.194 49.6161 101.194 58.5588C101.194 67.5015 108.766 74.8763 117.676 74.8763C122.577 74.8763 126.14 73.3084 129.032 70.2971C131.925 67.3937 132.926 63.2541 132.926 59.9027C132.926 58.8989 132.818 57.8952 132.702 57.1071L117.676 56.9992V56.9909ZM229.235 60.4585C228.342 58.1109 225.673 53.7557 220.217 53.7557C214.762 53.7557 210.307 58.003 210.307 64.2579C210.307 70.181 214.762 74.7602 220.664 74.7602C225.449 74.7602 228.235 71.8567 229.351 70.0649L225.788 67.7172C224.565 69.509 223.003 70.6207 220.664 70.6207C218.325 70.6207 216.655 69.5008 215.539 67.3771L229.566 61.5701C229.789 61.678 229.235 60.4502 229.235 60.4502V60.4585ZM214.985 64.0339C214.878 60.0106 218.101 57.8869 220.441 57.8869C222.333 57.8869 223.78 58.7828 224.334 60.1184L214.985 64.0256V64.0339ZM203.629 74.2044H208.191V43.2534H203.629V74.2044ZM196.057 56.1033H195.95C194.95 54.8756 192.941 53.7557 190.387 53.7557C185.155 53.7557 180.369 58.3348 180.369 64.2579C180.369 70.181 185.155 74.7602 190.387 74.7602C192.834 74.7602 194.842 73.6403 195.95 72.4125H196.057V73.9804C196.057 78.0038 193.941 80.1275 190.495 80.1275C187.709 80.1275 185.932 78.1199 185.263 76.4442L181.254 78.1199C182.37 80.9155 185.486 84.3748 190.495 84.3748C195.842 84.3748 200.512 81.1312 200.512 73.4246V54.4276H196.173L196.066 56.1033H196.057ZM190.71 70.629C187.478 70.629 184.924 67.9495 184.924 64.2579C184.924 60.5664 187.593 57.8869 190.71 57.8869C193.826 57.8869 196.272 60.5664 196.272 64.2579C196.38 68.0573 193.933 70.629 190.71 70.629ZM250.833 43.2534H239.815V74.2044H244.377V62.4744H250.833C255.957 62.4744 260.966 58.7911 260.966 52.868C260.966 46.9449 255.957 43.2617 250.833 43.2617V43.2534ZM250.94 58.227H244.369V47.6086H250.94C254.395 47.6086 256.288 50.5121 256.288 52.8597C256.395 55.3152 254.395 58.227 250.94 58.227ZM279.332 53.7557C275.993 53.7557 272.538 55.2074 271.091 58.451L275.208 60.1267C276.1 58.451 277.654 57.8952 279.44 57.8952C281.779 57.8952 284.225 59.3469 284.341 61.9186V62.2504C283.564 61.8024 281.671 61.0226 279.555 61.0226C275.1 61.0226 270.645 63.4781 270.645 67.9495C270.645 72.0807 274.207 74.7685 278.324 74.7685C281.44 74.7685 283.109 73.3167 284.225 71.7489H284.333V74.0965H288.788V62.3665C288.68 56.7836 284.672 53.764 279.324 53.764L279.332 53.7557ZM278.778 70.629C277.216 70.629 275.216 69.8492 275.216 67.9495C275.216 65.6018 277.886 64.598 280.117 64.598C282.118 64.598 283.126 65.046 284.349 65.6018C283.903 68.5053 281.564 70.629 278.787 70.629H278.778ZM304.939 54.4276L299.707 67.8333H299.483L294.028 54.4276H289.127L297.367 73.2006L292.689 83.595H297.475L310.171 54.4276H304.939ZM263.52 74.2044H268.083V43.2534H263.52V74.2044Z" fill="white"/>
<path d="M51.4031 49.4917L24.7799 75.9299C24.6725 75.4404 24.6064 74.9178 24.6064 74.3869L24.937 24.5302C24.937 24.0656 25.0031 23.6259 25.094 23.1946L51.4113 49.4917H51.4031Z" fill="url(#paint0_linear_2_32)"/>
<path d="M25.1684 22.813C25.1353 22.9374 25.1188 23.0701 25.0858 23.1946C25.1106 23.0618 25.1353 22.9374 25.1684 22.813Z" fill="#5B7CD8"/>
<path d="M51.4031 49.4917L64.8262 62.914L35.0209 80.4261C33.8968 81.0897 32.6983 81.3884 31.5328 81.3884C31.351 81.3884 31.1691 81.3801 30.979 81.3635C30.9377 81.3635 30.8964 81.3552 30.8551 81.3552C30.7063 81.3386 30.5658 81.322 30.417 81.2971C30.3922 81.2888 30.3591 81.2888 30.3261 81.2805C30.1773 81.2557 30.0285 81.2225 29.8797 81.181C29.8549 81.1727 29.8301 81.1727 29.8053 81.1644C29.6235 81.1146 29.4417 81.0566 29.2681 80.9985C29.2598 80.9902 29.2516 80.9902 29.2433 80.9902C29.0697 80.9238 28.9044 80.8575 28.7391 80.7828C28.4911 80.6667 28.2432 80.5422 27.9952 80.3929C27.8382 80.3017 27.6894 80.1938 27.5406 80.086C27.4662 80.0362 27.3918 79.9864 27.3174 79.9284C27.1521 79.7956 26.9868 79.6546 26.8298 79.5136C26.7884 79.4804 26.7554 79.4472 26.7223 79.4057C26.6066 79.2979 26.4991 79.1818 26.3917 79.0573C26.2347 78.8997 26.1024 78.7255 25.9702 78.543C25.8214 78.3356 25.6809 78.1199 25.5486 77.8876C25.4081 77.6471 25.2841 77.3899 25.1849 77.1244C25.1353 77.0249 25.1023 76.9253 25.0692 76.8175C25.0196 76.718 24.9866 76.6101 24.9618 76.5023C24.9122 76.3364 24.8626 76.1704 24.8295 76.0045C24.8213 75.9879 24.813 75.9713 24.813 75.9548L51.4361 49.5166L51.4031 49.4917Z" fill="#5B7CD8"/>
<path d="M65.3469 35.6463L51.4031 49.4917L25.0858 23.1946C25.1106 23.0701 25.1353 22.9457 25.1684 22.8213C25.3172 22.1991 25.5569 21.6267 25.8792 21.0958C25.9206 21.0211 25.9619 20.9548 26.0115 20.8801C26.0859 20.7474 26.1768 20.6146 26.2677 20.4902C26.4165 20.2911 26.5735 20.092 26.7471 19.9012C26.8876 19.7519 27.0281 19.6026 27.1852 19.4615C27.3588 19.2956 27.5489 19.138 27.7555 18.997C27.8134 18.9555 27.8712 18.914 27.9291 18.8725C28.0696 18.7647 28.2266 18.6735 28.3754 18.5822C28.4663 18.5324 28.5655 18.4827 28.6647 18.4246C28.9457 18.2753 29.2516 18.1508 29.5574 18.0347C29.5574 18.0347 29.5629 18.0319 29.5739 18.0264C29.8797 17.9186 30.2104 17.8273 30.5327 17.7692C30.5575 17.7609 30.574 17.7609 30.5988 17.7609C30.6567 17.7443 30.7228 17.7278 30.7807 17.7278C30.9543 17.6946 31.1361 17.6697 31.3345 17.6614C31.508 17.6448 31.6816 17.6365 31.8635 17.6365C32.9958 17.6365 34.1613 17.9186 35.2606 18.549L65.3387 35.6712L65.3469 35.6463Z" fill="#5B7CD8"/>
<path d="M65.3469 35.6463L51.4031 49.4917L25.0858 23.1946C25.1106 23.0701 25.1353 22.9457 25.1684 22.8213C25.3255 22.1991 25.5652 21.635 25.8792 21.0958C25.9206 21.0211 25.9619 20.9548 26.0115 20.8801C26.0859 20.7474 26.1768 20.6146 26.2677 20.4902C26.4165 20.2911 26.5735 20.092 26.7471 19.9012C26.8876 19.7519 27.0281 19.6026 27.1852 19.4615C27.3588 19.2956 27.5489 19.138 27.7555 18.997C27.8134 18.9555 27.8712 18.914 27.9291 18.8725C28.0696 18.7647 28.2266 18.6735 28.3754 18.5822C28.4663 18.5324 28.5655 18.4827 28.6647 18.4246C28.9457 18.2753 29.2516 18.1508 29.5574 18.0347C29.5574 18.0347 29.5629 18.0319 29.5739 18.0264C29.8797 17.9186 30.2104 17.8356 30.5327 17.7692C30.5575 17.7609 30.574 17.7609 30.5988 17.7609C30.6567 17.7443 30.7228 17.7278 30.7807 17.7278C30.9543 17.6946 31.1361 17.6697 31.3345 17.6614C31.508 17.6448 31.6816 17.6365 31.8635 17.6365C32.9958 17.6365 34.1613 17.9186 35.2606 18.549L65.3387 35.6712L65.3469 35.6463Z" fill="url(#paint1_linear_2_32)"/>
<path d="M78.2907 55.0166L64.8427 62.9223L64.8345 62.914L78.2907 55.0166Z" fill="#E3E2EB"/>
<path d="M78.2907 55.0166L64.8345 62.914L51.4113 49.4917L65.3552 35.6463L78.2246 42.9796C82.8615 45.6176 82.9028 52.3205 78.2989 55.0166H78.2907Z" fill="url(#paint2_linear_2_32)"/>
<path d="M64.8345 62.914L35.0291 80.4261C33.905 81.0897 32.7065 81.3884 31.5411 81.3884C31.3593 81.3884 31.1774 81.3801 30.9873 81.3635C30.946 81.3635 30.9047 81.3552 30.8633 81.3552C30.7145 81.3386 30.574 81.322 30.4253 81.2971C30.4005 81.2888 30.3674 81.2888 30.3343 81.2805C30.1856 81.2557 30.0368 81.2225 29.888 81.181C29.8632 81.1727 29.8384 81.1727 29.8136 81.1644C29.6318 81.1146 29.4499 81.0566 29.2764 80.9985C29.2681 80.9902 29.2598 80.9902 29.2516 80.9902C29.078 80.9238 28.9127 80.8575 28.7474 80.7828C28.4994 80.6667 28.2514 80.5422 28.0035 80.3929C27.8464 80.3017 27.6976 80.1938 27.5489 80.086C27.4745 80.0362 27.4001 79.9864 27.3257 79.9284C27.1604 79.7956 26.9951 79.6546 26.838 79.5136C26.7967 79.4804 26.7636 79.4472 26.7306 79.4057C26.6149 79.2979 26.5074 79.1818 26.4 79.0573C26.2429 78.8997 26.1107 78.7255 25.9784 78.543C25.8296 78.3356 25.6891 78.1199 25.5569 77.8876C25.4164 77.6471 25.2924 77.3899 25.1932 77.1244C25.1436 77.0249 25.1106 76.9253 25.0775 76.8175C25.0279 76.7179 24.9948 76.6101 24.97 76.5023C24.9204 76.3364 24.8709 76.1704 24.8378 76.0045C24.8295 75.9879 24.8213 75.9713 24.8213 75.9547L51.4444 49.5166L64.8675 62.9389L64.8345 62.914Z" fill="url(#paint3_linear_2_32)"/>
</g>
<defs>
<linearGradient id="paint0_linear_2_32" x1="24.6064" y1="49.5581" x2="51.4031" y2="49.5581" gradientUnits="userSpaceOnUse">
<stop stop-color="#4285F4"/>
<stop offset="1" stop-color="#4285F4"/>
</linearGradient>
<linearGradient id="paint1_linear_2_32" x1="32.8884" y1="33.5475" x2="60.1975" y2="33.5475" gradientUnits="userSpaceOnUse">
<stop stop-color="#34A853"/>
<stop offset="0.48" stop-color="#34A853"/>
<stop offset="0.96" stop-color="#34A853"/>
</linearGradient>
<linearGradient id="paint2_linear_2_32" x1="51.4031" y1="49.276" x2="81.7209" y2="49.276" gradientUnits="userSpaceOnUse">
<stop stop-color="#FBBC04"/>
<stop offset="0.41" stop-color="#FBBC04"/>
<stop offset="1" stop-color="#FBBC04"/>
</linearGradient>
<linearGradient id="paint3_linear_2_32" x1="27.243" y1="76.0128" x2="58.3537" y2="56.1978" gradientUnits="userSpaceOnUse">
<stop stop-color="#EA4335"/>
<stop offset="0.99" stop-color="#EA4335"/>
</linearGradient>
<clipPath id="clip0_2_32">
<rect width="334" height="99" fill="white"/>
</clipPath>
</defs>
</svg>
