<svg width="36" height="36" viewBox="0 0 36 36" fill="none" xmlns="http://www.w3.org/2000/svg">
<path d="M32.1429 0H3.85714C1.72768 0 0 1.72768 0 3.85714V32.1429C0 34.2723 1.72768 36 3.85714 36H32.1429C34.2723 36 36 34.2723 36 32.1429V3.85714C36 1.72768 34.2723 0 32.1429 0ZM10.2054 28.3259C9.76339 29.0973 8.775 29.3545 8.01161 28.9125C7.24018 28.4705 6.98304 27.4821 7.425 26.7188L8.57411 24.7339C9.86786 24.3402 10.9286 24.6455 11.7563 25.65L10.2054 28.3259ZM21.367 23.9946H6.75C5.86607 23.9946 5.14286 23.2714 5.14286 22.3875C5.14286 21.5036 5.86607 20.7804 6.75 20.7804H10.8482L16.1036 11.6839L14.4562 8.83929C14.0143 8.06786 14.2795 7.0875 15.0429 6.64554C15.8143 6.20357 16.7946 6.46875 17.2366 7.23214L17.9518 8.46964L18.667 7.23214C19.1089 6.46071 20.0973 6.20357 20.8607 6.64554C21.6321 7.0875 21.8893 8.07589 21.4473 8.83929L14.5527 20.7804H19.5429C21.1661 20.7804 22.0741 22.6848 21.367 23.9946ZM29.25 23.9946H26.9196L28.4946 26.7188C28.9366 27.4902 28.6714 28.4705 27.908 28.9125C27.1366 29.3545 26.1562 29.0893 25.7143 28.3259C23.0705 23.7536 21.0938 20.3143 19.7679 18.0321C18.4259 15.7018 19.3821 13.3714 20.3384 12.5839C21.3911 14.408 22.9661 17.1402 25.0714 20.7804H29.25C30.1339 20.7804 30.8571 21.5036 30.8571 22.3875C30.8571 23.2795 30.1339 23.9946 29.25 23.9946Z" fill="#7D7EA3"/>
</svg>
