<?xml version="1.0" encoding="utf-8"?>
<!-- Generator: Adobe Illustrator 27.6.1, SVG Export Plug-In . SVG Version: 6.00 Build 0)  -->
<svg version="1.1" id="Layer_1" xmlns="http://www.w3.org/2000/svg" xmlns:xlink="http://www.w3.org/1999/xlink" x="0px" y="0px"
	 viewBox="0 0 550 582" style="enable-background:new 0 0 550 582;" xml:space="preserve">
<style type="text/css">
	.st0{fill:none;stroke:#D0D0E1;stroke-width:5;stroke-linejoin:round;stroke-dasharray:10,10;}
	.st1{fill:#D0D0E1;}
	.st2{fill:#F3F0F4;}
	.st3{fill:#5F6084;}
	.st4{fill:none;stroke:#F3F0F4;stroke-width:10;stroke-linecap:round;stroke-linejoin:round;}
	.st5{fill:none;}
	.st6{fill:#279646;}
	.st7{fill:#FFFFFF;}
	.st8{fill:#E12827;}
	
		.st9{fill:none;filter:url(#Adobe_OpacityMaskFilter);stroke:#FFFFFF;stroke-width:8.3333;stroke-linecap:round;stroke-linejoin:round;}
	.st10{fill:#FFFFFF;stroke:#FFFFFF;stroke-width:8.3333;}
	.st11{fill:none;stroke:#000000;stroke-width:8.3333;stroke-linecap:round;stroke-linejoin:round;}
	.st12{fill:none;stroke:#FFFFFF;stroke-width:8.3333;stroke-linecap:round;stroke-linejoin:round;}
	.st13{mask:url(#mask0_206_411_00000014608391174936135530000010391575392980073905_);}
</style>
<circle class="st0" cx="274" cy="284" r="245.5"/>
<circle class="st1" cx="508.8" cy="337.8" r="12.8"/>
<path class="st2" d="M469,251.1c0-4.3,1.7-8.3,4.7-11.3s7.1-4.7,11.3-4.7h48.2c4.3,0,8.3,1.7,11.3,4.7s4.7,7.1,4.7,11.3v96.3
	c0,4.3-1.7,8.3-4.7,11.3s-7.1,4.7-11.3,4.7H485c-4.3,0-8.3-1.7-11.3-4.7s-4.7-7.1-4.7-11.3V251.1z M517.2,339.3
	c0-2.1-0.8-4.2-2.4-5.7s-3.5-2.4-5.7-2.4s-4.2,0.8-5.7,2.4c-1.5,1.5-2.4,3.5-2.4,5.7c0,2.1,0.8,4.2,2.4,5.7c1.5,1.5,3.5,2.4,5.7,2.4
	s4.2-0.8,5.7-2.4S517.2,341.5,517.2,339.3z"/>
<rect x="486" y="253" class="st3" width="44.9" height="69.3"/>
<path class="st4" d="M243.2,45.6l-6,84c-4,41-14.5,59.3-40.5,66c-14.8,3.8-21.6,3.9-37.7,0.9c-10.4-2.5-30.8-8.5-39.7-30.4
	c-5.7-14.2-6.4-47.7,0-60.4l30.2-60"/>
<rect x="17" y="33" class="st3" width="138" height="98"/>
<path class="st2" d="M137.5,126.8h-107V35.2h106.9 M152.7,20H15.3C6.8,20,0,26.8,0,35.2v91.5c0,4,1.6,7.9,4.5,10.8s6.7,4.5,10.8,4.5
	h137.5c4.1,0,7.9-1.6,10.8-4.5c2.9-2.9,4.5-6.7,4.5-10.8V35.2c0-4-1.6-7.9-4.5-10.8C160.7,21.6,156.8,20,152.7,20z"/>
<circle class="st1" cx="153" cy="44" r="7"/>
<path class="st2" d="M237.9,81.4c-0.1,0.8-0.4,1.5-1,2.1c-0.6,0.5-1.3,0.8-2.1,0.8s-1.6-0.3-2.1-0.9c-0.6-0.5-0.9-1.3-1-2.1v-0.4
	l1.3-17.7l-3.1-0.2c-2.4-0.2-4.6-1.2-6.2-3c-1.6-1.7-2.5-4-2.5-6.4V53l1.7-22.9c0.1-1.9,0.9-3.8,2.1-5.3c1.2-1.5,2.9-2.6,4.8-3.1
	l1.3-18.2c0.1-0.8,0.4-1.5,0.9-2s1.2-0.9,2-0.9h0.4l27,2c0.8,0.1,1.5,0.4,2,0.9s0.9,1.2,0.9,2v0.4L263,24.1c1.6,0.7,3.1,1.9,4,3.4
	c1,1.5,1.5,3.3,1.5,5.1v0.7l-1.7,22.9c-0.2,2.4-1.2,4.6-3,6.2c-1.7,1.6-4,2.5-6.4,2.5h-0.6l-3.1-0.2l-1.3,17.6
	c-0.1,0.8-0.4,1.5-1,2.1c-0.6,0.5-1.3,0.8-2.1,0.8s-1.6-0.3-2.1-0.9c-0.6-0.5-0.9-1.3-1-2.1v-0.4l1.3-17.6l-8.3-0.6L237.9,81.4
	L237.9,81.4z M257.9,8.7l-20.8-1.5L236,21.8l20.8,1.5L257.9,8.7z"/>
<path class="st2" d="M236.4,54.9l14.9,1.6c2.7,0.3,4.7,2.8,4.4,5.5l-2.3,21.6c-0.3,2.7-2.8,4.7-5.5,4.4L233,86.4
	c-2.7-0.3-4.7-2.8-4.4-5.5l2.3-21.6C231.2,56.5,233.6,54.6,236.4,54.9z"/>
<rect x="116.6" y="200.9" class="st5" width="288" height="174"/>
<g>
	<path class="st6" d="M315.5,316.7l-0.2-0.3c0,0.1,0,0.2,0.1,0.3C315.4,316.6,315.5,316.7,315.5,316.7z"/>
	<path class="st7" d="M321.1,269.2c14.5,8.7,19.3,27.4,10.6,41.9c-3.1,5.2-7.5,9.1-12.5,11.6l2.6,4.2c1.2-0.8,2.4-1.5,3.7-2.2
		c0.5-0.3,1.4-0.5,2-0.3c3.4,1.4,6.8,3,10.2,4.5c2.4,1.1,3.2,0.9,4.6-1.3c1.6-2.6,3.2-5.3,4.8-8c1.7-2.8,3.3-5.6,5-8.3
		c0.9-1.5,0.8-2.6-0.7-3.7c-2.9-2.3-5.8-4.6-8.7-6.9c-1.1-0.8-1.7-1.7-1.5-3.1c0.3-2.3,0.1-4.5,0.4-6.8c0.1-0.8,0.6-1.8,1.2-2.3
		c2.6-2.1,5.4-4,8.1-6c2-1.4,2.2-2.4,1-4.5c-2.9-5.2-5.8-10.4-8.7-15.7c-1-1.8-2.2-2.2-4.1-1.4c-1.2,0.5-2.3,1.2-3.5,1.8
		c-2.4,1.2-4.8,3.3-7.2,3.2c-2.4-0.1-4.7-2.3-6.9-3.8c-0.7-0.4-1.3-1.4-1.3-2.2c-0.4-3.5-0.5-7-0.8-10.5c-0.1-1.8-0.8-3.2-3-3.2
		c-6.2,0-12.4-0.1-18.6-0.2c-1.8,0-2.8,0.8-3,2.6c-0.4,3.5-1,6.9-1.4,10.4c-0.1,1.1-0.6,1.6-1.6,2c-1.6,0.8-3.2,1.6-4.7,2.6l1.8,6.1
		C298.3,263.7,310.8,263.1,321.1,269.2z"/>
	<path class="st8" d="M312.8,273.3h-34.6c0.3,1,0.5,2,0.7,2.9c0.1,0.9,0.2,2,0.2,3.2v33.3c0,1.3-0.1,2.3-0.2,3.2
		c-0.1,0.9-0.3,1.8-0.7,2.9h15.1c-0.3-1-0.5-2-0.7-2.9c-0.1-0.9-0.2-2-0.2-3.2v-9.9h20.4c7.3,0,11-3.1,11-9.3v-10.8
		C323.8,276.3,320.1,273.3,312.8,273.3z M310.8,292.7c0,1.7-0.2,2.8-0.7,3.3s-1.4,0.8-2.8,0.8h-14.9v-17.7h14.9
		c1.4,0,2.4,0.3,2.8,0.8s0.7,1.7,0.7,3.4V292.7z"/>
	<path class="st7" d="M173.1,289.1h4.7l6,11.5h4.7l-6.3-12.1c1.4-0.6,2.6-1.5,3.4-2.8c0.9-1.3,1.4-2.8,1.4-4.4c0-2.2-0.8-4-2.3-5.6
		c-1.5-1.5-3.4-2.3-5.6-2.3H169v27.2h4.1C173.1,300.6,173.1,289.1,173.1,289.1z M173.1,277.5h5.9c1,0,1.9,0.4,2.7,1.1
		c0.7,0.8,1.1,1.6,1.1,2.7s-0.4,1.9-1.1,2.6c-0.7,0.8-1.6,1.1-2.7,1.1h-5.9V277.5z"/>
	<polygon class="st7" points="204.6,296.5 194.8,296.5 194.8,289 202.3,289 202.3,284.9 194.8,284.9 194.8,277.5 204.6,277.5 
		204.6,273.4 190.7,273.4 190.7,300.6 204.6,300.6 	"/>
	<path class="st7" d="M225.9,281.3c0-2.2-0.8-4-2.3-5.6c-1.5-1.5-3.4-2.3-5.6-2.3h-10.1v27.2h4.1v-11.5h5.9c2.2,0,4-0.8,5.6-2.3
		C225.1,285.3,225.9,283.5,225.9,281.3z M220.7,283.9c-0.8,0.8-1.6,1.1-2.7,1.1h-5.9v-7.5h5.9c1,0,1.9,0.4,2.7,1.1
		c0.7,0.8,1.1,1.6,1.1,2.7C221.7,282.3,221.4,283.2,220.7,283.9z"/>
	<path class="st7" d="M227.6,294.3h9.2v6.4h4.1v-27.2h-5.1l-17.2,27.2h4.9L227.6,294.3z M236.9,279.7v10.5h-6.6L236.9,279.7z"/>
	<rect x="245.7" y="273.4" class="st7" width="4.1" height="27.2"/>
	<path class="st7" d="M273.5,300.6l-6.3-12.1c1.4-0.6,2.6-1.5,3.4-2.8c0.9-1.3,1.4-2.8,1.4-4.4c0-2.2-0.8-4-2.3-5.6
		c-1.5-1.5-3.4-2.3-5.6-2.3H254v27.2h4.1v-11.5h4.7l6,11.5L273.5,300.6L273.5,300.6z M264.1,285h-5.9v-7.5h5.9c1,0,1.9,0.4,2.7,1.1
		c0.7,0.8,1.1,1.6,1.1,2.7s-0.4,1.9-1.1,2.6C266,284.6,265.2,285,264.1,285z"/>
	<path class="st7" d="M174,309.8c-2.1-0.6-3.1-1.3-3.1-2.3c0-0.8,0.4-1.4,1.2-1.7c0.5-0.2,1.1-0.3,1.8-0.3c1,0,1.8,0.4,2.3,0.9
		l1.7-1.6c-1-1-2.3-1.6-3.9-1.7c-1.3-0.1-2.5,0.2-3.4,0.8c-1.3,0.8-1.9,1.9-2,3.4c-0.1,2.2,1.5,3.7,4.7,4.6c2.1,0.6,3.1,1.4,3.1,2.3
		c0,0.5-0.3,1-0.8,1.4c-0.6,0.5-1.3,0.7-2.2,0.6c-0.6,0-1.1-0.2-1.6-0.4c-0.5-0.3-0.9-0.7-1.1-1.1l-2.2,0.8c0.4,0.9,1,1.7,2,2.2
		c0.9,0.5,1.8,0.8,2.8,0.8c0.1,0,0.2,0,0.3,0c1.3,0,2.5-0.4,3.4-1.1c1-0.8,1.6-1.8,1.6-3.1c0-0.9-0.2-1.6-0.8-2.3
		C177.2,311.1,175.9,310.4,174,309.8z"/>
	<path class="st7" d="M187.5,303.2c-2.1,0-3.9,0.8-5.5,2.3c-1.5,1.5-2.3,3.3-2.3,5.5s0.8,3.9,2.3,5.5c1.5,1.5,3.3,2.3,5.5,2.3
		s3.9-0.8,5.5-2.3c1.5-1.5,2.3-3.3,2.3-5.5s-0.8-3.9-2.3-5.5C191.5,304,189.6,303.2,187.5,303.2z M191.3,314.8c-1,1-2.3,1.6-3.8,1.6
		s-2.8-0.5-3.8-1.6c-1-1-1.6-2.3-1.6-3.8s0.5-2.8,1.6-3.8c1-1,2.3-1.6,3.8-1.6s2.8,0.5,3.8,1.6c1,1,1.6,2.3,1.6,3.8
		S192.4,313.7,191.3,314.8z"/>
	<polygon class="st7" points="199.3,303.4 197,303.4 197,318.5 204.7,318.5 204.7,316.2 199.3,316.2 	"/>
	<path class="st7" d="M215.2,313.3c0,0.9-0.3,1.6-0.9,2.2c-0.6,0.6-1.3,0.9-2.2,0.9s-1.6-0.3-2.2-0.9c-0.6-0.6-0.9-1.3-0.9-2.2v-9.9
		h-2.3v9.9c0,1.5,0.5,2.8,1.6,3.8s2.3,1.6,3.8,1.6s2.8-0.5,3.8-1.6c1-1,1.6-2.3,1.6-3.8v-9.9h-2.3L215.2,313.3L215.2,313.3z"/>
	<polygon class="st7" points="219.5,305.7 222.7,305.7 222.7,318.5 225,318.5 225,305.7 228.2,305.7 228.2,303.4 219.5,303.4 	"/>
	<rect x="230.3" y="303.4" class="st7" width="2.3" height="15.1"/>
	<path class="st7" d="M242,303.2c-2.1,0-3.9,0.8-5.5,2.3c-1.5,1.5-2.3,3.3-2.3,5.5s0.8,3.9,2.3,5.5c1.5,1.5,3.3,2.3,5.5,2.3
		c2.1,0,3.9-0.8,5.5-2.3c1.5-1.5,2.3-3.3,2.3-5.5s-0.8-3.9-2.3-5.5C246,304,244.2,303.2,242,303.2z M245.9,314.8
		c-1,1-2.3,1.6-3.8,1.6s-2.8-0.5-3.8-1.6c-1-1-1.6-2.3-1.6-3.8s0.5-2.8,1.6-3.8c1-1,2.3-1.6,3.8-1.6s2.8,0.5,3.8,1.6
		c1.1,1,1.6,2.3,1.6,3.8S246.9,313.7,245.9,314.8z"/>
	<polygon class="st7" points="260.3,314.2 253.8,303.4 251.4,303.4 251.4,318.5 253.7,318.5 253.7,307.7 260.2,318.5 262.6,318.5 
		262.6,303.4 260.3,303.4 	"/>
	<path class="st7" d="M269.6,309.8c-2.1-0.6-3.1-1.3-3.1-2.3c0-0.8,0.4-1.4,1.2-1.7c0.5-0.2,1.1-0.3,1.8-0.3c1,0,1.8,0.4,2.3,0.9
		l1.7-1.6c-1-1-2.3-1.6-3.9-1.7c-1.3-0.1-2.5,0.2-3.4,0.8c-1.3,0.8-1.9,1.9-2,3.4c-0.1,2.2,1.5,3.7,4.7,4.6c2.1,0.6,3.1,1.4,3.1,2.3
		c0,0.5-0.3,1-0.8,1.4c-0.6,0.5-1.3,0.7-2.2,0.6c-0.6,0-1.1-0.2-1.6-0.4c-0.5-0.3-0.9-0.7-1.1-1.1l-2.2,0.8c0.4,0.9,1,1.7,2,2.2
		c0.9,0.5,1.8,0.8,2.8,0.8c0.1,0,0.2,0,0.3,0c1.3,0,2.5-0.4,3.4-1.1c1-0.8,1.6-1.8,1.6-3.1c0-0.9-0.2-1.6-0.8-2.3
		C272.8,311.1,271.5,310.4,269.6,309.8z"/>
	<path class="st7" d="M273,273.3c-0.5,0-0.9,0.2-1.3,0.5c-0.4,0.4-0.5,0.8-0.5,1.3s0.2,0.9,0.5,1.3c0.4,0.4,0.8,0.5,1.3,0.5
		s0.9-0.2,1.3-0.5c0.4-0.4,0.5-0.8,0.5-1.3s-0.2-0.9-0.5-1.3C273.9,273.4,273.5,273.3,273,273.3z M274.1,276.2
		c-0.3,0.3-0.7,0.5-1.1,0.5s-0.8-0.1-1.1-0.5c-0.3-0.3-0.5-0.7-0.5-1.1s0.1-0.8,0.5-1.1c0.3-0.3,0.7-0.5,1.1-0.5s0.8,0.1,1.1,0.5
		c0.3,0.3,0.5,0.7,0.5,1.1S274.4,275.8,274.1,276.2z"/>
	<path class="st7" d="M273.8,275.9v-0.1v-0.1c0-0.1,0-0.2-0.1-0.3s-0.2-0.2-0.3-0.2c0.1,0,0.2,0,0.3-0.1c0.1-0.1,0.2-0.2,0.2-0.4
		c0-0.3-0.1-0.4-0.3-0.5c-0.1,0-0.3-0.1-0.5-0.1h-0.7v2h0.4v-0.8h0.3c0.2,0,0.3,0,0.4,0.1s0.2,0.2,0.2,0.5v0.1v0.1l0,0l0,0h0.3l0,0
		L273.8,275.9z M273.3,275c-0.1,0-0.2,0-0.3,0h-0.3v-0.7h0.3c0.2,0,0.3,0,0.4,0.1c0.1,0,0.1,0.1,0.1,0.3S273.4,274.9,273.3,275z"/>
	<polygon class="st7" points="324.6,257 325.6,257 325.6,260.5 326,260.5 326,257 327.1,257 327.1,256.5 324.6,256.5 	"/>
	<path class="st7" d="M329.2,259.3c-0.1,0.3-0.1,0.5-0.2,0.6c0-0.1-0.1-0.3-0.1-0.6l-0.8-2.8h-0.6v4h0.4v-3.4l0.9,3.4h0.4l0.9-3.3
		v3.3h0.4v-4h-0.6L329.2,259.3z"/>
	<path class="st8" d="M308.8,313.4c0.6-0.1,1-0.3,1.3-0.6s0.4-0.7,0.4-1.2v-2.2c0-0.7-0.2-1.2-0.6-1.6s-0.9-0.5-1.6-0.5h-8.6
		c0.1,0.3,0.1,0.5,0.1,0.7s0,0.5,0,0.8v7.9c0,0.3,0,0.6,0,0.8c0,0.2-0.1,0.4-0.1,0.7h3.6c-0.1-0.3-0.1-0.5-0.1-0.7s0-0.5,0-0.8v-3.3
		h2.4l1.9,4.8h3.6c-0.3-0.3-0.6-0.7-0.8-1.1L308.8,313.4z M307.4,311.3c0,0.3,0,0.5-0.1,0.6s-0.2,0.1-0.4,0.1h-3.7v-3.3h3.7
		c0.4,0,0.6,0.3,0.6,0.7v1.9H307.4z"/>
	<path class="st8" d="M320.7,307.3h-6.4c-1.4,0-2.2,0.7-2.2,2.2v6.4c0,1.5,0.7,2.2,2.2,2.2h6.4c1.4,0,2.2-0.7,2.2-2.2v-6.4
		C322.9,308,322.1,307.3,320.7,307.3z M319.7,316.1c0,0.3,0,0.4-0.1,0.5s-0.3,0.1-0.5,0.1h-3.2c-0.2,0-0.3,0-0.4-0.1
		c0,0-0.1,0-0.1-0.1c-0.1-0.1-0.1-0.1-0.1-0.3c0-0.1,0-0.1,0-0.3v-6.8c0-0.3,0-0.4,0.1-0.5s0.3-0.1,0.5-0.1h3.2c0.3,0,0.4,0,0.5,0.1
		s0.1,0.3,0.1,0.5V316.1L319.7,316.1z"/>
</g>
<g>
	<rect x="109.2" y="488.1" class="st1" width="80.9" height="21.4"/>
	<defs>
		<filter id="Adobe_OpacityMaskFilter" filterUnits="userSpaceOnUse" x="12.9" y="345.1" width="272.8" height="272.8">
			<feColorMatrix  type="matrix" values="1 0 0 0 0  0 1 0 0 0  0 0 1 0 0  0 0 0 1 0"/>
		</filter>
	</defs>
	
		<mask maskUnits="userSpaceOnUse" x="12.9" y="345.1" width="272.8" height="272.8" id="mask0_206_411_00000014608391174936135530000010391575392980073905_">
		<path class="st9" d="M120.9,527h56.8v51.2h-56.8V527z"/>
		<path class="st10" d="M246,390.6H52.7c-6.3,0-11.4,5.1-11.4,11.4v113.7c0,6.3,5.1,11.4,11.4,11.4H246c6.3,0,11.4-5.1,11.4-11.4
			V401.9C257.3,395.7,252.3,390.6,246,390.6z"/>
		<path class="st11" d="M138,498.6h22.7"/>
		<path class="st12" d="M92.5,578.2h113.7"/>
	</mask>
	<g class="st13">
		<path class="st2" d="M12.9,345.1h272.8v272.8H12.9V345.1z"/>
		<circle class="st1" cx="148.8" cy="517.1" r="7.5"/>
	</g>
	<rect x="60.3" y="403.6" class="st3" width="177" height="101"/>
</g>
</svg>
