<?xml version="1.0" encoding="utf-8"?>
<!-- Generator: Adobe Illustrator 27.6.1, SVG Export Plug-In . SVG Version: 6.00 Build 0)  -->
<svg version="1.1" id="Layer_1" xmlns="http://www.w3.org/2000/svg" xmlns:xlink="http://www.w3.org/1999/xlink" x="0px" y="0px"
	 viewBox="0 0 215.2 72.5" style="enable-background:new 0 0 215.2 72.5;" xml:space="preserve">
<style type="text/css">
	.st0{fill:#221E20;}
	.st1{fill:#FFFFFF;}
	.st2{fill:#E12426;}
</style>
<g id="Layer_1_00000127736434497296414040000013272234803422271148_">
	<path class="st0" d="M210.4,72.5H91.6c-2.7,0-4.8-2.2-4.8-4.8V4.8C86.8,2.2,89,0,91.6,0h118.8c2.7,0,4.8,2.2,4.8,4.8v62.8
		C215.2,70.3,213.1,72.5,210.4,72.5z"/>
	<g>
		<path class="st1" d="M106,57.5h-4.1c-0.5,0-0.6-0.2-0.6-0.7v-1.1c0-0.5,0.2-0.7,0.6-0.7h4.6c0.5,0,1.2,0,1.7,0.3l-0.3-1.7h-7.6
			c-1.4,0-2.2,0.7-2.2,2.3v2.4c0,1.5,0.8,2.3,2.2,2.3h4.1c0.5,0,0.6,0.2,0.6,0.7v1.5c0,0.5-0.2,0.7-0.6,0.7h-4.5
			c-0.5,0-1.2,0-1.7-0.3l0.3,1.7h7.6c1.4,0,2.2-0.7,2.2-2.3v-2.8C108.2,58.2,107.4,57.5,106,57.5z"/>
		<path class="st1" d="M119.4,53.7h-6.6c-1.4,0-2.2,0.7-2.2,2.3v6.6c0,1.5,0.8,2.3,2.2,2.3h6.6c1.4,0,2.2-0.7,2.2-2.3V56
			C121.6,54.4,120.8,53.7,119.4,53.7z M118.3,62.7c0,0.5-0.2,0.7-0.6,0.7h-3.2c-0.5,0-0.6-0.2-0.6-0.7v-6.9c0-0.5,0.2-0.7,0.6-0.7
			h3.2c0.5,0,0.6,0.2,0.6,0.7V62.7z"/>
		<path class="st1" d="M127,63.4v-8.2c0-0.5,0-1,0.2-1.5h-3.7c0.2,0.5,0.2,1,0.2,1.5v8.1c0,0.5,0,1-0.2,1.5h9.1l0.3-1.7
			c-0.5,0.2-1.2,0.3-1.7,0.3H127z"/>
		<path class="st1" d="M144.5,55.2v7.7c0,0.3-0.2,0.5-0.5,0.5h-5c-0.3,0-0.5-0.2-0.5-0.5v-7.7c0-0.5,0-1,0.2-1.5H135
			c0.2,0.5,0.2,1,0.2,1.5v7.7c0,1.1,0.9,1.9,2,1.9h6.8c1.1,0,2-0.8,2-1.9v-7.7c0-0.5,0-1,0.2-1.5h-1.9
			C144.5,54.2,144.5,54.7,144.5,55.2z"/>
		<path class="st1" d="M148.1,53.7l-0.3,1.7c0.5-0.2,1.2-0.3,1.7-0.3h1.7v8.2c0,0.5,0,1-0.2,1.5h3.7c-0.2-0.5-0.2-1-0.2-1.5v-8.2
			h1.7c0.5,0,1.2,0,1.7,0.3l-0.3-1.7H148.1z"/>
		<path class="st1" d="M163.7,53.7H160c0.2,0.5,0.2,1,0.2,1.5v8.1c0,0.5,0,1-0.2,1.5h3.7c-0.2-0.5-0.2-1-0.2-1.5v-8.1
			C163.5,54.7,163.5,54.2,163.7,53.7z"/>
		<path class="st1" d="M175.2,53.7h-6.6c-1.4,0-2.2,0.7-2.2,2.3v6.6c0,1.5,0.8,2.3,2.2,2.3h6.6c1.4,0,2.2-0.7,2.2-2.3V56
			C177.4,54.4,176.7,53.7,175.2,53.7z M174.2,62.7c0,0.5-0.2,0.7-0.6,0.7h-3.2c-0.5,0-0.6-0.2-0.6-0.7v-6.9c0-0.5,0.2-0.7,0.6-0.7
			h3.2c0.5,0,0.6,0.2,0.6,0.7V62.7z"/>
		<path class="st1" d="M189.6,55.2v7.3h0l-5.6-8.8h-4.1c0.2,0.5,0.2,1,0.2,1.5v8.1c0,0.5,0,1-0.2,1.5h1.9c-0.2-0.5-0.2-1-0.2-1.5
			v-7.5h0l5.7,9h3.8v-9.6c0-0.5,0-1,0.2-1.5h-1.9C189.6,54.2,189.6,54.7,189.6,55.2z"/>
		<path class="st1" d="M201.7,57.5h-4.1c-0.5,0-0.6-0.2-0.6-0.7v-1.1c0-0.5,0.2-0.7,0.6-0.7h4.6c0.5,0,1.2,0,1.7,0.3l-0.3-1.7h-7.6
			c-1.4,0-2.2,0.7-2.2,2.3v2.4c0,1.5,0.8,2.3,2.2,2.3h4.1c0.5,0,0.6,0.2,0.6,0.7v1.5c0,0.5-0.2,0.7-0.6,0.7h-4.6
			c-0.5,0-1.2,0-1.7-0.3l0.3,1.7h7.6c1.4,0,2.2-0.7,2.2-2.3v-2.8C203.9,58.2,203.1,57.5,201.7,57.5z"/>
		<path class="st2" d="M156.5,39.9V19.7c0-1.5-0.5-1.9-1.8-1.9h-11.2v24.1h11.2C156.1,41.9,156.5,41.4,156.5,39.9z"/>
		<path class="st2" d="M96.7,51.7h108.6V7.7H96.7V51.7z M171.3,20.2c0-4.5,2.3-6.6,6.5-6.6h22.1l0.8,4.9c-1.5-0.7-3.6-0.8-5-0.8
			h-13.4c-1.4,0-1.8,0.5-1.8,1.9v3.1c0,1.5,0.5,1.9,1.8,1.9h12.1c4.2,0,6.5,2.1,6.5,6.6v8.1c0,4.5-2.3,6.6-6.5,6.6h-22l-0.8-4.9
			c1.5,0.7,3.6,0.8,5,0.8h13.3c1.4,0,1.8-0.5,1.8-1.9v-4.2c0-1.5-0.5-1.9-1.8-1.9h-12.1c-4.2,0-6.5-2.1-6.5-6.6V20.2z M134.4,13.6
			h26.2c4.2,0,6.7,2.1,6.7,6.6v19.2c0,4.5-2.5,6.6-6.7,6.6h-26.2c0.5-1.5,0.6-2.9,0.6-4.3V18C135,16.5,134.9,15.1,134.4,13.6z
			 M101.1,20.2c0-4.5,2.3-6.6,6.5-6.6h22.1l0.8,4.9c-1.5-0.7-3.6-0.8-5-0.8h-13.4c-1.4,0-1.8,0.5-1.8,1.9v3.1c0,1.5,0.5,1.9,1.8,1.9
			h12.1c4.2,0,6.5,2.1,6.5,6.6v8.1c0,4.5-2.3,6.6-6.5,6.6h-22l-0.8-4.9c1.5,0.7,3.6,0.8,5,0.8h13.3c1.4,0,1.8-0.5,1.8-1.9v-4.2
			c0-1.5-0.5-1.9-1.8-1.9h-12.1c-4.2,0-6.5-2.1-6.5-6.6C101.1,27.2,101.1,20.2,101.1,20.2z"/>
		<path class="st1" d="M107.6,33.8h12.1c1.4,0,1.8,0.5,1.8,1.9v4.2c0,1.5-0.5,1.9-1.8,1.9h-13.3c-1.4,0-3.5-0.1-5-0.8l0.8,4.9h22
			c4.2,0,6.5-2.1,6.5-6.6v-8.1c0-4.5-2.3-6.6-6.5-6.6h-12.1c-1.4,0-1.8-0.5-1.8-1.9v-3.1c0-1.5,0.5-1.9,1.8-1.9h13.4
			c1.4,0,3.5,0.1,5,0.8l-0.8-4.9h-22.1c-4.2,0-6.5,2.1-6.5,6.6v7C101.1,31.7,103.4,33.8,107.6,33.8z"/>
		<path class="st1" d="M134.4,46h26.2c4.2,0,6.7-2.1,6.7-6.6V20.2c0-4.5-2.5-6.6-6.7-6.6h-26.2c0.5,1.5,0.6,2.9,0.6,4.3v23.7
			C135,43.1,134.9,44.5,134.4,46z M143.5,17.8h11.2c1.4,0,1.8,0.5,1.8,1.9v20.2c0,1.5-0.5,1.9-1.8,1.9h-11.2V17.8z"/>
		<path class="st1" d="M177.8,33.8h12.1c1.4,0,1.8,0.5,1.8,1.9v4.2c0,1.5-0.5,1.9-1.8,1.9h-13.3c-1.4,0-3.5-0.1-5-0.8l0.8,4.9h22
			c4.2,0,6.5-2.1,6.5-6.6v-8.1c0-4.5-2.3-6.6-6.5-6.6h-12.1c-1.4,0-1.8-0.5-1.8-1.9v-3.1c0-1.5,0.5-1.9,1.8-1.9h13.4
			c1.4,0,3.5,0.1,5,0.8l-0.8-4.9h-22.1c-4.2,0-6.5,2.1-6.5,6.6v7C171.3,31.7,173.6,33.8,177.8,33.8z"/>
	</g>
</g>
<g>
	<path class="st1" d="M0,49c0.7-0.1,1.6-0.2,2.8-0.2c1.4,0,2.5,0.3,3.1,1c0.6,0.6,1,1.4,1,2.4c0,1.1-0.3,1.9-0.9,2.5
		c-0.8,0.8-2,1.3-3.4,1.3c-0.4,0-0.8,0-1.2-0.1v4.7H0V49z M1.4,54.6c0.3,0.1,0.7,0.1,1.2,0.1c1.7,0,2.8-0.9,2.8-2.5
		c0-1.5-1-2.3-2.6-2.3c-0.6,0-1.1,0.1-1.4,0.1V54.6z"/>
	<path class="st1" d="M15.7,56.2c0,3.1-2.1,4.4-4,4.4c-2.2,0-3.9-1.7-3.9-4.3c0-2.8,1.8-4.4,4-4.4C14.1,51.9,15.7,53.7,15.7,56.2z
		 M9.3,56.3c0,1.8,1,3.2,2.4,3.2c1.4,0,2.4-1.4,2.4-3.2c0-1.4-0.7-3.2-2.4-3.2C10,53.1,9.3,54.7,9.3,56.3z"/>
	<path class="st1" d="M18,52.1l1.1,4.2c0.2,0.9,0.4,1.8,0.6,2.7h0c0.2-0.8,0.4-1.7,0.7-2.6l1.3-4.3H23l1.2,4.2
		c0.3,1,0.5,1.9,0.7,2.7h0c0.1-0.8,0.3-1.7,0.6-2.7l1.1-4.2h1.4l-2.6,8.4h-1.3l-1.2-4c-0.3-0.9-0.5-1.8-0.7-2.7h0
		c-0.2,1-0.4,1.9-0.7,2.8l-1.3,4h-1.3l-2.4-8.4H18z"/>
	<path class="st1" d="M30.3,56.6c0,2.1,1.3,2.9,2.8,2.9c1,0,1.7-0.2,2.2-0.4l0.2,1.1c-0.5,0.2-1.4,0.5-2.7,0.5c-2.5,0-4-1.7-4-4.2
		s1.4-4.5,3.8-4.5c2.6,0,3.3,2.4,3.3,3.9c0,0.3,0,0.6,0,0.7H30.3z M34.6,55.5c0-1-0.4-2.5-2-2.5c-1.5,0-2.1,1.4-2.2,2.5H34.6z"/>
	<path class="st1" d="M37.8,54.7c0-1,0-1.8-0.1-2.6H39l0,1.6h0.1c0.4-1.1,1.2-1.8,2.2-1.8c0.2,0,0.3,0,0.4,0.1v1.4
		c-0.1,0-0.3-0.1-0.5-0.1c-1,0-1.8,0.8-2,2c0,0.2-0.1,0.4-0.1,0.7v4.5h-1.4V54.7z"/>
	<path class="st1" d="M43.9,56.6c0,2.1,1.3,2.9,2.8,2.9c1,0,1.7-0.2,2.2-0.4l0.2,1.1c-0.5,0.2-1.4,0.5-2.7,0.5c-2.5,0-4-1.7-4-4.2
		s1.4-4.5,3.8-4.5c2.6,0,3.3,2.4,3.3,3.9c0,0.3,0,0.6,0,0.7H43.9z M48.2,55.5c0-1-0.4-2.5-2-2.5c-1.5,0-2.1,1.4-2.2,2.5H48.2z"/>
	<path class="st1" d="M58.4,48.2v10.1c0,0.7,0,1.6,0.1,2.2h-1.3L57.1,59h0c-0.4,0.9-1.4,1.6-2.7,1.6c-1.9,0-3.4-1.7-3.4-4.2
		c0-2.8,1.6-4.5,3.6-4.5c1.2,0,2.1,0.6,2.4,1.3h0v-5H58.4z M56.9,55.5c0-0.2,0-0.4-0.1-0.6c-0.2-1-1-1.8-2.1-1.8
		c-1.5,0-2.4,1.4-2.4,3.2c0,1.7,0.8,3.1,2.4,3.1c1,0,1.9-0.7,2.1-1.8c0-0.2,0.1-0.4,0.1-0.7V55.5z"/>
	<path class="st1" d="M64.3,60.5c0-0.6,0.1-1.4,0.1-2.2V48.2h1.4v5.3h0c0.5-0.9,1.4-1.5,2.7-1.5c2,0,3.4,1.7,3.4,4.3
		c0,3-1.8,4.5-3.6,4.5c-1.2,0-2.1-0.5-2.7-1.6h0l-0.1,1.4H64.3z M65.8,57.1c0,0.2,0,0.4,0.1,0.6c0.3,1.1,1.1,1.8,2.2,1.8
		c1.5,0,2.4-1.3,2.4-3.2c0-1.7-0.8-3.1-2.4-3.1c-1,0-1.9,0.7-2.2,1.9c0,0.2-0.1,0.4-0.1,0.6V57.1z"/>
	<path class="st1" d="M74.2,52.1l1.8,4.9c0.2,0.6,0.4,1.2,0.5,1.7h0c0.1-0.5,0.3-1.1,0.5-1.7l1.6-4.9h1.5l-2.2,6
		c-1,2.9-1.8,4.3-2.8,5.2c-0.7,0.7-1.4,0.9-1.8,1L73.1,63c0.4-0.1,0.8-0.4,1.3-0.7c0.4-0.3,0.9-0.9,1.2-1.7c0.1-0.2,0.1-0.3,0.1-0.4
		c0-0.1,0-0.2-0.1-0.4l-3-7.7H74.2z"/>
</g>
</svg>
