<?xml version="1.0" encoding="utf-8"?>
<!-- Generator: Adobe Illustrator 27.6.1, SVG Export Plug-In . SVG Version: 6.00 Build 0)  -->
<svg version="1.1" id="Layer_1" xmlns="http://www.w3.org/2000/svg" xmlns:xlink="http://www.w3.org/1999/xlink" x="0px" y="0px"
	 viewBox="0 0 613.7 121.6" style="enable-background:new 0 0 613.7 121.6;" xml:space="preserve">
<style type="text/css">
	.st0{fill:#FFFFFF;}
	.st1{fill:#E9422E;}
	.st2{fill:none;stroke:#FFFFFF;stroke-width:2;}
	.st3{fill:#279646;}
	.st4{fill:#E12827;}
</style>
<g>
	<path class="st0" d="M324.9,68.6c-0.2,0-0.4-0.1-0.4-0.3l-0.8-3.4c0-0.1-0.1-0.1-0.2-0.1h-6.5c-0.1,0-0.1,0-0.2,0.1l-0.8,3.4
		c-0.1,0.2-0.2,0.3-0.4,0.3h-3c-0.3,0-0.4-0.1-0.3-0.4l5.8-21.4c0.1-0.2,0.2-0.3,0.4-0.3h3.6c0.2,0,0.4,0.1,0.4,0.3l5.8,21.4l0,0.1
		c0,0.2-0.1,0.3-0.3,0.3H324.9z M317.5,61.7c0,0.1,0,0.1,0,0.2c0,0,0.1,0,0.1,0h5c0,0,0.1,0,0.1,0c0,0,0.1-0.1,0-0.2l-2.6-10.4
		c0-0.1-0.1-0.1-0.1-0.1c0,0-0.1,0-0.1,0.1L317.5,61.7z M343.8,68.8c-1.4,0-2.6-0.3-3.6-0.8c-1.1-0.6-1.9-1.4-2.5-2.4
		c-0.6-1-0.9-2.2-0.9-3.5v-9.3c0-1.3,0.3-2.5,0.9-3.5c0.6-1,1.4-1.8,2.5-2.3c1.1-0.5,2.3-0.8,3.6-0.8s2.6,0.3,3.6,0.8
		c1.1,0.5,1.9,1.3,2.4,2.3c0.6,1,0.9,2.1,0.9,3.4v0.2c0,0.1,0,0.2-0.1,0.3c-0.1,0.1-0.1,0.1-0.3,0.1l-2.9,0.1
		c-0.3,0-0.4-0.1-0.4-0.4v-0.4c0-1-0.3-1.8-0.9-2.4c-0.6-0.6-1.4-0.9-2.3-0.9c-1,0-1.8,0.3-2.4,0.9c-0.6,0.6-0.9,1.4-0.9,2.4v9.7
		c0,1,0.3,1.8,0.9,2.4c0.6,0.6,1.4,0.9,2.4,0.9c1,0,1.8-0.3,2.3-0.9c0.6-0.6,0.9-1.4,0.9-2.4v-0.4c0-0.2,0.1-0.3,0.4-0.3l2.9,0.1
		c0.1,0,0.2,0,0.3,0.1c0.1,0.1,0.1,0.1,0.1,0.3v0.1c0,1.3-0.3,2.5-0.9,3.5c-0.6,1-1.4,1.8-2.4,2.3C346.4,68.6,345.2,68.8,343.8,68.8
		z M360.7,68.8c-1.4,0-2.6-0.3-3.7-0.9c-1.1-0.6-1.9-1.4-2.5-2.4c-0.6-1.1-0.9-2.3-0.9-3.6V53c0-1.4,0.3-2.5,0.9-3.6
		c0.6-1.1,1.4-1.9,2.5-2.4c1.1-0.6,2.3-0.9,3.7-0.9c1.4,0,2.6,0.3,3.7,0.9c1.1,0.6,1.9,1.4,2.5,2.4c0.6,1,0.9,2.2,0.9,3.6v8.9
		c0,1.4-0.3,2.6-0.9,3.6c-0.6,1-1.4,1.8-2.5,2.4C363.4,68.6,362.2,68.8,360.7,68.8z M360.7,65.7c1,0,1.9-0.3,2.5-1
		c0.6-0.7,0.9-1.5,0.9-2.6v-9.2c0-1.1-0.3-1.9-0.9-2.6c-0.6-0.7-1.4-1-2.5-1c-1,0-1.8,0.3-2.4,1c-0.6,0.7-0.9,1.5-0.9,2.6v9.2
		c0,1.1,0.3,1.9,0.9,2.6C358.9,65.4,359.7,65.7,360.7,65.7z M383.5,46.7c0.1-0.2,0.2-0.3,0.4-0.3h2.9c0.1,0,0.2,0,0.3,0.1
		c0.1,0.1,0.1,0.1,0.1,0.3v21.4c0,0.1,0,0.2-0.1,0.3c-0.1,0.1-0.1,0.1-0.3,0.1H384c-0.1,0-0.2,0-0.3-0.1c-0.1-0.1-0.1-0.2-0.1-0.3
		v-15c0-0.1,0-0.1-0.1-0.1c0,0-0.1,0-0.1,0.1l-3.4,5.5c-0.1,0.2-0.2,0.3-0.4,0.3H379c-0.2,0-0.4-0.1-0.4-0.3l-3.4-5.5
		c0-0.1-0.1-0.1-0.1-0.1c0,0-0.1,0-0.1,0.1v15c0,0.1,0,0.2-0.1,0.3c-0.1,0.1-0.1,0.1-0.3,0.1h-2.9c-0.1,0-0.2,0-0.3-0.1
		c-0.1-0.1-0.1-0.2-0.1-0.3V46.8c0-0.1,0-0.2,0.1-0.3c0.1-0.1,0.2-0.1,0.3-0.1h2.9c0.2,0,0.4,0.1,0.4,0.3l4.1,6.6
		c0.1,0.1,0.1,0.1,0.2,0L383.5,46.7z M403.4,46.7c0.1-0.2,0.2-0.3,0.4-0.3h2.9c0.1,0,0.2,0,0.3,0.1c0.1,0.1,0.1,0.1,0.1,0.3v21.4
		c0,0.1,0,0.2-0.1,0.3c-0.1,0.1-0.1,0.1-0.3,0.1h-2.9c-0.1,0-0.2,0-0.3-0.1c-0.1-0.1-0.1-0.2-0.1-0.3v-15c0-0.1,0-0.1-0.1-0.1
		c0,0-0.1,0-0.1,0.1l-3.4,5.5c-0.1,0.2-0.2,0.3-0.4,0.3h-0.6c-0.2,0-0.4-0.1-0.4-0.3l-3.4-5.5c0-0.1-0.1-0.1-0.1-0.1
		c0,0-0.1,0-0.1,0.1v15c0,0.1,0,0.2-0.1,0.3c-0.1,0.1-0.1,0.1-0.3,0.1h-2.9c-0.1,0-0.2,0-0.3-0.1c-0.1-0.1-0.1-0.2-0.1-0.3V46.8
		c0-0.1,0-0.2,0.1-0.3c0.1-0.1,0.2-0.1,0.3-0.1h2.9c0.2,0,0.4,0.1,0.4,0.3l4.1,6.6c0.1,0.1,0.1,0.1,0.2,0L403.4,46.7z M417.9,68.8
		c-1.4,0-2.6-0.3-3.6-0.9c-1.1-0.6-1.9-1.4-2.5-2.4c-0.6-1.1-0.9-2.3-0.9-3.6V46.8c0-0.1,0-0.2,0.1-0.3c0.1-0.1,0.2-0.1,0.3-0.1h2.9
		c0.1,0,0.2,0,0.3,0.1c0.1,0.1,0.1,0.1,0.1,0.3v15.3c0,1.1,0.3,1.9,0.9,2.6c0.6,0.7,1.4,1,2.4,1c1,0,1.8-0.3,2.4-1
		c0.6-0.7,0.9-1.5,0.9-2.6V46.8c0-0.1,0-0.2,0.1-0.3c0.1-0.1,0.2-0.1,0.3-0.1h2.9c0.1,0,0.2,0,0.3,0.1c0.1,0.1,0.1,0.1,0.1,0.3v15.1
		c0,1.4-0.3,2.6-0.9,3.6c-0.6,1-1.4,1.8-2.4,2.4C420.5,68.5,419.3,68.8,417.9,68.8z M439.5,46.8c0-0.1,0-0.2,0.1-0.3
		c0.1-0.1,0.2-0.1,0.3-0.1h2.9c0.1,0,0.2,0,0.3,0.1c0.1,0.1,0.1,0.1,0.1,0.3v21.4c0,0.1,0,0.2-0.1,0.3c-0.1,0.1-0.1,0.1-0.3,0.1
		h-3.1c-0.2,0-0.3-0.1-0.4-0.3l-6.9-14.2c0-0.1-0.1-0.1-0.1-0.1c0,0-0.1,0-0.1,0.1l0,14c0,0.1,0,0.2-0.1,0.3
		c-0.1,0.1-0.1,0.1-0.3,0.1H429c-0.1,0-0.2,0-0.3-0.1c-0.1-0.1-0.1-0.2-0.1-0.3V46.8c0-0.1,0-0.2,0.1-0.3c0.1-0.1,0.2-0.1,0.3-0.1h3
		c0.2,0,0.4,0.1,0.4,0.3l6.9,14.2c0,0.1,0.1,0.1,0.1,0.1c0,0,0.1-0.1,0.1-0.2L439.5,46.8z M447.6,68.6c-0.1,0-0.2,0-0.3-0.1
		c-0.1-0.1-0.1-0.2-0.1-0.3V46.8c0-0.1,0-0.2,0.1-0.3c0.1-0.1,0.2-0.1,0.3-0.1h2.9c0.1,0,0.2,0,0.3,0.1c0.1,0.1,0.1,0.1,0.1,0.3
		v21.4c0,0.1,0,0.2-0.1,0.3c-0.1,0.1-0.1,0.1-0.3,0.1H447.6z M467.9,46.4c0.1,0,0.2,0,0.3,0.1c0.1,0.1,0.1,0.1,0.1,0.3v2.4
		c0,0.1,0,0.2-0.1,0.3c-0.1,0.1-0.1,0.1-0.3,0.1H463c-0.1,0-0.2,0.1-0.2,0.2v18.4c0,0.1,0,0.2-0.1,0.3c-0.1,0.1-0.1,0.1-0.3,0.1
		h-2.9c-0.1,0-0.2,0-0.3-0.1c-0.1-0.1-0.1-0.2-0.1-0.3V49.8c0-0.1-0.1-0.2-0.2-0.2h-4.7c-0.1,0-0.2,0-0.3-0.1
		c-0.1-0.1-0.1-0.2-0.1-0.3v-2.4c0-0.1,0-0.2,0.1-0.3c0.1-0.1,0.2-0.1,0.3-0.1H467.9z M476.1,68.5c-0.1,0-0.2,0-0.3-0.1
		c-0.1-0.1-0.1-0.2-0.1-0.3v-8.5l0-0.2l-5.5-12.6c0,0,0-0.1,0-0.2c0-0.2,0.1-0.3,0.3-0.3h3.1c0.2,0,0.4,0.1,0.4,0.3l3.4,8.5
		c0.1,0.1,0.1,0.1,0.2,0l3.4-8.5c0.1-0.2,0.2-0.3,0.4-0.3h3.1c0.1,0,0.2,0,0.3,0.1c0,0.1,0,0.2,0,0.3l-5.5,12.6l0,0.2v8.5
		c0,0.1,0,0.2-0.1,0.3c-0.1,0.1-0.1,0.1-0.3,0.1H476.1z M508.1,62.5c0,2-0.6,3.5-1.9,4.5c-1.2,1-2.8,1.6-4.8,1.6h-6.7
		c-0.1,0-0.2,0-0.3-0.1c-0.1-0.1-0.1-0.2-0.1-0.3V46.8c0-0.1,0-0.2,0.1-0.3c0.1-0.1,0.2-0.1,0.3-0.1h6.4c2.1,0,3.8,0.5,5,1.5
		c1.2,1,1.8,2.5,1.8,4.5c0,2.2-0.9,3.7-2.6,4.6c-0.1,0.1-0.1,0.1,0,0.2C507.2,58.2,508.1,60,508.1,62.5z M498.1,49.6
		c-0.1,0-0.2,0.1-0.2,0.2v5.9c0,0.1,0.1,0.2,0.2,0.2h2.9c1,0,1.8-0.3,2.3-0.8c0.6-0.5,0.9-1.3,0.9-2.3c0-1-0.3-1.8-0.9-2.3
		c-0.5-0.5-1.3-0.8-2.3-0.8H498.1z M501.3,65.4c1,0,1.7-0.3,2.3-0.9c0.6-0.6,0.9-1.4,0.9-2.5c0-1.1-0.3-1.9-0.9-2.5
		c-0.6-0.6-1.3-0.9-2.3-0.9h-3.1c-0.1,0-0.2,0.1-0.2,0.2v6.4c0,0.1,0.1,0.2,0.2,0.2H501.3z M515.4,68.5c-0.1,0-0.2,0-0.3-0.1
		c-0.1-0.1-0.1-0.2-0.1-0.3v-8.5l0-0.2l-5.5-12.6c0,0,0-0.1,0-0.2c0-0.2,0.1-0.3,0.3-0.3h3.1c0.2,0,0.4,0.1,0.4,0.3l3.4,8.5
		c0.1,0.1,0.1,0.1,0.2,0l3.4-8.5c0.1-0.2,0.2-0.3,0.4-0.3h3.1c0.1,0,0.2,0,0.3,0.1c0,0.1,0,0.2,0,0.3l-5.5,12.6l0,0.2v8.5
		c0,0.1,0,0.2-0.1,0.3c-0.1,0.1-0.1,0.1-0.3,0.1H515.4z M546.5,46.4c0.1,0,0.2,0,0.3,0.1c0.1,0.1,0.1,0.1,0.1,0.3v2.4
		c0,0.1,0,0.2-0.1,0.3c-0.1,0.1-0.1,0.1-0.3,0.1h-4.9c-0.1,0-0.2,0.1-0.2,0.2v18.4c0,0.1,0,0.2-0.1,0.3c-0.1,0.1-0.1,0.1-0.3,0.1
		h-2.9c-0.1,0-0.2,0-0.3-0.1c-0.1-0.1-0.1-0.2-0.1-0.3V49.8c0-0.1-0.1-0.2-0.2-0.2h-4.7c-0.1,0-0.2,0-0.3-0.1
		c-0.1-0.1-0.1-0.2-0.1-0.3v-2.4c0-0.1,0-0.2,0.1-0.3c0.1-0.1,0.2-0.1,0.3-0.1H546.5z M562.9,49.2c0,0.1,0,0.2-0.1,0.3
		c-0.1,0.1-0.1,0.1-0.3,0.1h-8.8c-0.1,0-0.2,0.1-0.2,0.2v6c0,0.1,0.1,0.2,0.2,0.2h5.6c0.1,0,0.2,0,0.3,0.1c0.1,0.1,0.1,0.1,0.1,0.3
		v2.4c0,0.1,0,0.2-0.1,0.3c-0.1,0.1-0.1,0.1-0.3,0.1h-5.6c-0.1,0-0.2,0.1-0.2,0.2v6.1c0,0.1,0.1,0.2,0.2,0.2h8.8
		c0.1,0,0.2,0,0.3,0.1c0.1,0.1,0.1,0.1,0.1,0.3v2.4c0,0.1,0,0.2-0.1,0.3c-0.1,0.1-0.1,0.1-0.3,0.1h-12.3c-0.1,0-0.2,0-0.3-0.1
		c-0.1-0.1-0.1-0.2-0.1-0.3V46.8c0-0.1,0-0.2,0.1-0.3c0.1-0.1,0.2-0.1,0.3-0.1h12.3c0.1,0,0.2,0,0.3,0.1c0.1,0.1,0.1,0.1,0.1,0.3
		V49.2z M572.6,68.8c-1.4,0-2.6-0.3-3.6-0.8c-1.1-0.6-1.9-1.4-2.5-2.4c-0.6-1-0.9-2.2-0.9-3.5v-9.3c0-1.3,0.3-2.5,0.9-3.5
		c0.6-1,1.4-1.8,2.5-2.3c1.1-0.5,2.3-0.8,3.6-0.8c1.4,0,2.6,0.3,3.6,0.8c1.1,0.5,1.9,1.3,2.4,2.3c0.6,1,0.9,2.1,0.9,3.4v0.2
		c0,0.1,0,0.2-0.1,0.3c-0.1,0.1-0.1,0.1-0.3,0.1l-2.9,0.1c-0.3,0-0.4-0.1-0.4-0.4v-0.4c0-1-0.3-1.8-0.9-2.4
		c-0.6-0.6-1.4-0.9-2.3-0.9c-1,0-1.8,0.3-2.4,0.9c-0.6,0.6-0.9,1.4-0.9,2.4v9.7c0,1,0.3,1.8,0.9,2.4c0.6,0.6,1.4,0.9,2.4,0.9
		c1,0,1.8-0.3,2.3-0.9c0.6-0.6,0.9-1.4,0.9-2.4v-0.4c0-0.2,0.1-0.3,0.4-0.3l2.9,0.1c0.1,0,0.2,0,0.3,0.1c0.1,0.1,0.1,0.1,0.1,0.3
		v0.1c0,1.3-0.3,2.5-0.9,3.5c-0.6,1-1.4,1.8-2.4,2.3C575.2,68.6,574,68.8,572.6,68.8z M593,46.8c0-0.1,0-0.2,0.1-0.3
		c0.1-0.1,0.2-0.1,0.3-0.1h2.9c0.1,0,0.2,0,0.3,0.1c0.1,0.1,0.1,0.1,0.1,0.3v21.4c0,0.1,0,0.2-0.1,0.3c-0.1,0.1-0.1,0.1-0.3,0.1
		h-2.9c-0.1,0-0.2,0-0.3-0.1c-0.1-0.1-0.1-0.2-0.1-0.3v-9c0-0.1-0.1-0.2-0.2-0.2h-6c-0.1,0-0.2,0.1-0.2,0.2v9c0,0.1,0,0.2-0.1,0.3
		c-0.1,0.1-0.1,0.1-0.3,0.1h-2.9c-0.1,0-0.2,0-0.3-0.1c-0.1-0.1-0.1-0.2-0.1-0.3V46.8c0-0.1,0-0.2,0.1-0.3c0.1-0.1,0.2-0.1,0.3-0.1
		h2.9c0.1,0,0.2,0,0.3,0.1c0.1,0.1,0.1,0.1,0.1,0.3v8.9c0,0.1,0.1,0.2,0.2,0.2h6c0.1,0,0.2-0.1,0.2-0.2V46.8z M606.8,68.8
		c-1.4,0-2.6-0.2-3.7-0.7c-1.1-0.5-1.9-1.2-2.5-2.1c-0.6-0.9-0.9-2-0.9-3.2v-0.8c0-0.1,0-0.2,0.1-0.3c0.1-0.1,0.2-0.1,0.3-0.1h2.8
		c0.1,0,0.2,0,0.3,0.1c0.1,0.1,0.1,0.1,0.1,0.3v0.6c0,0.9,0.3,1.6,0.9,2.2c0.6,0.6,1.5,0.9,2.6,0.9c1,0,1.8-0.3,2.3-0.8
		c0.5-0.5,0.8-1.2,0.8-2c0-0.6-0.1-1.1-0.4-1.5c-0.3-0.4-0.7-0.8-1.3-1.1c-0.5-0.4-1.4-0.8-2.5-1.4c-1.3-0.7-2.3-1.3-3.1-1.8
		c-0.8-0.5-1.4-1.2-2-2c-0.5-0.8-0.8-1.8-0.8-3c0-1.8,0.6-3.3,1.8-4.3c1.2-1.1,2.8-1.6,4.8-1.6c1.4,0,2.6,0.3,3.6,0.8
		c1.1,0.5,1.9,1.2,2.4,2.2c0.6,0.9,0.9,2,0.9,3.3V53c0,0.1,0,0.2-0.1,0.3c-0.1,0.1-0.1,0.1-0.3,0.1h-2.8c-0.1,0-0.2,0-0.3-0.1
		c-0.1-0.1-0.1-0.2-0.1-0.3v-0.6c0-0.9-0.3-1.7-0.9-2.2c-0.6-0.6-1.4-0.9-2.5-0.9c-0.9,0-1.6,0.2-2.2,0.7c-0.5,0.5-0.8,1.1-0.8,2
		c0,0.6,0.1,1.1,0.4,1.5c0.3,0.4,0.7,0.8,1.2,1.1c0.6,0.4,1.4,0.8,2.6,1.4c1.5,0.9,2.6,1.5,3.4,2c0.7,0.5,1.3,1.1,1.8,1.9
		c0.5,0.8,0.8,1.7,0.8,2.8c0,1.9-0.6,3.3-1.9,4.4C610.6,68.3,608.9,68.8,606.8,68.8z"/>
	<path class="st1" d="M326.7,88.5c0,0.1,0,0.2-0.1,0.3c-0.1,0.1-0.1,0.1-0.3,0.1h-8.1c-0.1,0-0.2,0.1-0.2,0.2v4
		c0,0.1,0.1,0.2,0.2,0.2h4.9c0.1,0,0.2,0,0.3,0.1c0.1,0.1,0.1,0.1,0.1,0.3v3.7c0,0.1,0,0.2-0.1,0.3c-0.1,0.1-0.1,0.1-0.3,0.1h-4.9
		c-0.1,0-0.2,0.1-0.2,0.2v8.4c0,0.1,0,0.2-0.1,0.3c-0.1,0.1-0.1,0.1-0.3,0.1h-4.5c-0.1,0-0.2,0-0.3-0.1c-0.1-0.1-0.1-0.2-0.1-0.3
		V84.8c0-0.1,0-0.2,0.1-0.3c0.1-0.1,0.2-0.1,0.3-0.1h13.2c0.1,0,0.2,0,0.3,0.1c0.1,0.1,0.1,0.1,0.1,0.3V88.5z M335.8,106.9
		c-1.5,0-2.9-0.3-4-0.9c-1.2-0.6-2.1-1.5-2.7-2.6c-0.6-1.1-0.9-2.4-0.9-3.9v-8c0-1.5,0.3-2.7,0.9-3.8c0.7-1.1,1.6-2,2.7-2.6
		c1.2-0.6,2.5-0.9,4-0.9c1.5,0,2.9,0.3,4,0.9c1.2,0.6,2.1,1.5,2.7,2.6c0.7,1.1,1,2.4,1,3.8v8c0,1.5-0.3,2.8-1,3.9
		c-0.6,1.1-1.5,2-2.7,2.6C338.6,106.6,337.3,106.9,335.8,106.9z M335.8,102.3c0.7,0,1.3-0.2,1.8-0.7c0.4-0.5,0.7-1.2,0.7-2v-8.3
		c0-0.8-0.2-1.5-0.7-2c-0.4-0.5-1-0.8-1.7-0.8c-0.7,0-1.3,0.3-1.8,0.8c-0.4,0.5-0.7,1.1-0.7,2v8.3c0,0.8,0.2,1.5,0.7,2
		C334.4,102.1,335,102.3,335.8,102.3z M356,106.6c-0.2,0-0.3-0.1-0.4-0.3l-3-8.4c0-0.1-0.1-0.1-0.2-0.1h-1.3c-0.1,0-0.2,0.1-0.2,0.2
		v8.3c0,0.1,0,0.2-0.1,0.3c-0.1,0.1-0.1,0.1-0.3,0.1h-4.5c-0.1,0-0.2,0-0.3-0.1c-0.1-0.1-0.1-0.2-0.1-0.3V84.8c0-0.1,0-0.2,0.1-0.3
		c0.1-0.1,0.2-0.1,0.3-0.1h8.1c1.3,0,2.5,0.3,3.5,0.9c1,0.6,1.8,1.4,2.3,2.4c0.5,1,0.8,2.2,0.8,3.6c0,1.3-0.3,2.5-0.9,3.5
		c-0.6,1-1.4,1.7-2.4,2.2c-0.1,0-0.1,0.1-0.1,0.2l3.5,8.9c0,0,0,0.1,0,0.2c0,0.2-0.1,0.3-0.3,0.3H356z M351.2,88.9
		c-0.1,0-0.2,0.1-0.2,0.2v4.5c0,0.1,0.1,0.2,0.2,0.2h2.2c0.7,0,1.2-0.2,1.6-0.6c0.4-0.4,0.6-1,0.6-1.7c0-0.8-0.2-1.4-0.6-1.8
		c-0.4-0.4-0.9-0.7-1.6-0.7H351.2z M384.1,84.4c0.1,0,0.2,0,0.3,0.1c0.1,0.1,0.1,0.1,0.1,0.3v3.8c0,0.1,0,0.2-0.1,0.3
		c-0.1,0.1-0.1,0.1-0.3,0.1h-4.7c-0.1,0-0.2,0.1-0.2,0.2v17.1c0,0.1,0,0.2-0.1,0.3c-0.1,0.1-0.1,0.1-0.3,0.1h-4.5
		c-0.1,0-0.2,0-0.3-0.1c-0.1-0.1-0.1-0.2-0.1-0.3V89.1c0-0.1-0.1-0.2-0.2-0.2h-4.6c-0.1,0-0.2,0-0.3-0.1c-0.1-0.1-0.1-0.2-0.1-0.3
		v-3.8c0-0.1,0-0.2,0.1-0.3c0.1-0.1,0.2-0.1,0.3-0.1H384.1z M400.4,88.5c0,0.1,0,0.2-0.1,0.3c-0.1,0.1-0.1,0.1-0.3,0.1h-8.2
		c-0.1,0-0.2,0.1-0.2,0.2v4c0,0.1,0.1,0.2,0.2,0.2h4.9c0.1,0,0.2,0,0.3,0.1c0.1,0.1,0.1,0.1,0.1,0.3v3.7c0,0.1,0,0.2-0.1,0.3
		c-0.1,0.1-0.1,0.1-0.3,0.1h-4.9c-0.1,0-0.2,0.1-0.2,0.2v4.1c0,0.1,0.1,0.2,0.2,0.2h8.2c0.1,0,0.2,0,0.3,0.1
		c0.1,0.1,0.1,0.1,0.1,0.3v3.7c0,0.1,0,0.2-0.1,0.3c-0.1,0.1-0.1,0.1-0.3,0.1h-13.2c-0.1,0-0.2,0-0.3-0.1c-0.1-0.1-0.1-0.2-0.1-0.3
		V84.8c0-0.1,0-0.2,0.1-0.3c0.1-0.1,0.2-0.1,0.3-0.1h13.2c0.1,0,0.2,0,0.3,0.1c0.1,0.1,0.1,0.1,0.1,0.3V88.5z M409.8,106.8
		c-1.5,0-2.8-0.3-4-0.9c-1.1-0.6-2-1.4-2.7-2.5c-0.6-1.1-0.9-2.4-0.9-3.8v-8.3c0-1.4,0.3-2.7,0.9-3.8c0.6-1.1,1.5-1.9,2.7-2.5
		c1.2-0.6,2.5-0.9,4-0.9c1.5,0,2.8,0.3,4,0.9c1.2,0.6,2,1.4,2.7,2.4c0.6,1.1,0.9,2.3,0.9,3.7v0.1c0,0.1,0,0.2-0.1,0.3
		c-0.1,0.1-0.1,0.1-0.3,0.1l-4.5,0.2c-0.3,0-0.4-0.1-0.4-0.3V91c0-0.7-0.2-1.3-0.6-1.7c-0.4-0.4-1-0.7-1.7-0.7s-1.3,0.2-1.7,0.7
		c-0.4,0.4-0.6,1-0.6,1.7v8.9c0,0.7,0.2,1.3,0.6,1.7c0.4,0.4,1,0.7,1.7,0.7s1.3-0.2,1.7-0.7c0.4-0.4,0.6-1,0.6-1.7v-0.4
		c0-0.2,0.1-0.3,0.4-0.3l4.5,0.2c0.1,0,0.2,0,0.3,0.1c0.1,0.1,0.1,0.2,0.1,0.3v0.1c0,1.4-0.3,2.6-0.9,3.7c-0.6,1.1-1.5,1.9-2.7,2.5
		C412.7,106.5,411.3,106.8,409.8,106.8z M429.3,84.8c0-0.1,0-0.2,0.1-0.3c0.1-0.1,0.2-0.1,0.3-0.1h4.5c0.1,0,0.2,0,0.3,0.1
		c0.1,0.1,0.1,0.1,0.1,0.3v21.4c0,0.1,0,0.2-0.1,0.3c-0.1,0.1-0.1,0.1-0.3,0.1h-4.5c-0.1,0-0.2,0-0.3-0.1c-0.1-0.1-0.1-0.2-0.1-0.3
		v-8.4c0-0.1-0.1-0.2-0.2-0.2h-4.1c-0.1,0-0.2,0.1-0.2,0.2v8.4c0,0.1,0,0.2-0.1,0.3c-0.1,0.1-0.1,0.1-0.3,0.1H420
		c-0.1,0-0.2,0-0.3-0.1c-0.1-0.1-0.1-0.2-0.1-0.3V84.8c0-0.1,0-0.2,0.1-0.3c0.1-0.1,0.2-0.1,0.3-0.1h4.5c0.1,0,0.2,0,0.3,0.1
		c0.1,0.1,0.1,0.1,0.1,0.3V93c0,0.1,0.1,0.2,0.2,0.2h4.1c0.1,0,0.2-0.1,0.2-0.2V84.8z M444.2,106.8c-1.5,0-2.8-0.3-4-0.8
		c-1.1-0.5-2-1.3-2.6-2.2c-0.6-1-0.9-2.1-0.9-3.4v-0.8c0-0.1,0-0.2,0.1-0.3c0.1-0.1,0.2-0.1,0.3-0.1h4.4c0.1,0,0.2,0,0.3,0.1
		c0.1,0.1,0.1,0.1,0.1,0.3v0.6c0,0.6,0.2,1.1,0.7,1.5c0.5,0.4,1.1,0.6,1.9,0.6c0.7,0,1.2-0.2,1.5-0.5c0.3-0.3,0.5-0.7,0.5-1.2
		c0-0.4-0.1-0.7-0.4-1c-0.2-0.3-0.6-0.6-1-0.8c-0.4-0.2-1.2-0.6-2.2-1.1c-1.2-0.6-2.2-1.2-3.1-1.7c-0.8-0.6-1.6-1.3-2.2-2.2
		c-0.6-0.9-0.9-2-0.9-3.3s0.3-2.4,0.9-3.3c0.6-0.9,1.5-1.7,2.6-2.2c1.1-0.5,2.4-0.8,3.8-0.8c1.5,0,2.8,0.3,3.9,0.9
		c1.1,0.5,2,1.3,2.7,2.3c0.7,1,1,2.1,1,3.5v0.6c0,0.1,0,0.2-0.1,0.3c-0.1,0.1-0.1,0.1-0.3,0.1h-4.4c-0.1,0-0.2,0-0.3-0.1
		c-0.1-0.1-0.1-0.2-0.1-0.3v-0.5c0-0.6-0.2-1.1-0.7-1.6c-0.4-0.4-1-0.7-1.8-0.7c-0.6,0-1.1,0.2-1.4,0.5c-0.3,0.3-0.5,0.7-0.5,1.3
		c0,0.4,0.1,0.8,0.3,1.1c0.2,0.3,0.6,0.6,1.1,0.9c0.5,0.3,1.3,0.7,2.3,1.2l0.9,0.5c1.1,0.6,2,1.2,2.7,1.7c0.7,0.5,1.2,1.1,1.7,1.9
		c0.5,0.8,0.7,1.7,0.7,2.8c0,2-0.7,3.6-2.1,4.7C448.2,106.2,446.4,106.8,444.2,106.8z M456.3,106.7c-0.8,0-1.5-0.3-2-0.8
		c-0.5-0.5-0.8-1.2-0.8-2c0-0.8,0.3-1.5,0.8-2c0.5-0.5,1.2-0.8,2-0.8s1.5,0.3,2,0.8s0.8,1.2,0.8,2c0,0.8-0.3,1.5-0.8,2
		C457.8,106.5,457.1,106.7,456.3,106.7z"/>
	<line class="st2" x1="286.1" y1="41.7" x2="286.1" y2="112.9"/>
	<path class="st0" d="M538.9,101.4v1.2h-5.6v-1.2H538.9z M533.5,91.3v11.3H532V91.3H533.5z M543.8,102.8c-0.6,0-1.1-0.1-1.6-0.3
		c-0.5-0.2-0.9-0.5-1.2-0.8c-0.3-0.4-0.6-0.8-0.8-1.3s-0.3-1-0.3-1.6v-0.3c0-0.7,0.1-1.3,0.3-1.8c0.2-0.5,0.5-1,0.8-1.4
		c0.3-0.4,0.7-0.7,1.2-0.8c0.4-0.2,0.9-0.3,1.4-0.3c0.6,0,1.1,0.1,1.5,0.3c0.4,0.2,0.8,0.5,1.1,0.9c0.3,0.4,0.5,0.8,0.6,1.3
		c0.1,0.5,0.2,1,0.2,1.6v0.6h-6.2v-1.2h4.8v-0.1c0-0.4-0.1-0.7-0.2-1.1c-0.1-0.4-0.3-0.6-0.6-0.9c-0.3-0.2-0.7-0.3-1.2-0.3
		c-0.3,0-0.6,0.1-0.9,0.2c-0.3,0.1-0.5,0.3-0.7,0.6c-0.2,0.3-0.3,0.6-0.5,1c-0.1,0.4-0.2,0.8-0.2,1.3v0.3c0,0.4,0.1,0.8,0.2,1.1
		c0.1,0.3,0.3,0.6,0.5,0.9c0.2,0.3,0.5,0.5,0.8,0.6c0.3,0.1,0.7,0.2,1.1,0.2c0.5,0,0.9-0.1,1.3-0.3c0.3-0.2,0.7-0.5,0.9-0.8l0.9,0.7
		c-0.2,0.3-0.4,0.5-0.7,0.8c-0.3,0.2-0.6,0.4-1,0.6C544.8,102.7,544.4,102.8,543.8,102.8z M553.7,101.2v-4.3c0-0.3-0.1-0.6-0.2-0.9
		c-0.1-0.2-0.3-0.4-0.6-0.6c-0.3-0.1-0.6-0.2-1-0.2c-0.4,0-0.7,0.1-1,0.2c-0.3,0.1-0.5,0.3-0.6,0.5c-0.1,0.2-0.2,0.4-0.2,0.6h-1.4
		c0-0.3,0.1-0.6,0.2-0.9c0.2-0.3,0.4-0.6,0.7-0.8c0.3-0.2,0.6-0.4,1.1-0.6c0.4-0.1,0.9-0.2,1.4-0.2c0.6,0,1.1,0.1,1.6,0.3
		c0.5,0.2,0.8,0.5,1.1,0.9c0.3,0.4,0.4,0.9,0.4,1.6v3.9c0,0.3,0,0.6,0.1,0.9c0.1,0.3,0.1,0.6,0.2,0.8v0.1h-1.5
		c-0.1-0.2-0.1-0.4-0.2-0.7C553.7,101.7,553.7,101.4,553.7,101.2z M553.9,97.5l0,1h-1.4c-0.4,0-0.8,0-1.1,0.1
		c-0.3,0.1-0.6,0.2-0.8,0.3c-0.2,0.1-0.4,0.3-0.5,0.5c-0.1,0.2-0.2,0.4-0.2,0.7c0,0.3,0.1,0.5,0.2,0.7c0.1,0.2,0.3,0.4,0.5,0.5
		c0.2,0.1,0.5,0.2,0.9,0.2c0.4,0,0.8-0.1,1.2-0.3c0.3-0.2,0.6-0.4,0.8-0.7c0.2-0.3,0.3-0.5,0.3-0.8l0.6,0.7c0,0.2-0.1,0.5-0.3,0.7
		c-0.2,0.3-0.4,0.5-0.6,0.8c-0.3,0.2-0.6,0.4-0.9,0.6c-0.4,0.2-0.8,0.2-1.2,0.2c-0.6,0-1.1-0.1-1.5-0.3c-0.4-0.2-0.8-0.5-1-0.9
		c-0.2-0.4-0.3-0.8-0.3-1.3c0-0.4,0.1-0.8,0.3-1.2c0.2-0.3,0.4-0.6,0.8-0.9c0.3-0.2,0.7-0.4,1.2-0.5c0.5-0.1,1-0.2,1.6-0.2H553.9z
		 M558.8,95.5v7h-1.4v-8.4h1.4L558.8,95.5z M561.4,94.2l0,1.3c-0.1,0-0.2,0-0.3,0c-0.1,0-0.2,0-0.4,0c-0.3,0-0.6,0.1-0.9,0.2
		c-0.3,0.1-0.5,0.2-0.6,0.4c-0.2,0.2-0.3,0.4-0.4,0.7c-0.1,0.3-0.2,0.5-0.2,0.8l-0.4,0.2c0-0.5,0-1,0.1-1.4c0.1-0.4,0.3-0.8,0.5-1.2
		c0.2-0.3,0.5-0.6,0.8-0.8c0.3-0.2,0.7-0.3,1.2-0.3c0.1,0,0.2,0,0.4,0C561.3,94.1,561.3,94.2,561.4,94.2z M564.2,96v6.6h-1.4v-8.4
		h1.4L564.2,96z M563.8,98.1l-0.6,0c0-0.6,0.1-1.1,0.3-1.6c0.2-0.5,0.4-0.9,0.7-1.3c0.3-0.4,0.7-0.6,1.1-0.8
		c0.4-0.2,0.9-0.3,1.4-0.3c0.4,0,0.8,0.1,1.1,0.2c0.3,0.1,0.6,0.3,0.8,0.5c0.2,0.2,0.4,0.6,0.5,0.9c0.1,0.4,0.2,0.8,0.2,1.4v5.5
		h-1.4v-5.5c0-0.4-0.1-0.8-0.2-1.1c-0.1-0.3-0.3-0.5-0.6-0.6c-0.2-0.1-0.6-0.2-0.9-0.2c-0.4,0-0.7,0.1-1,0.2
		c-0.3,0.1-0.5,0.4-0.7,0.6c-0.2,0.3-0.4,0.6-0.5,0.9C563.9,97.4,563.8,97.7,563.8,98.1z M576.1,91.3h1.4l3.7,9.2l3.7-9.2h1.5
		l-4.6,11.3h-1.1L576.1,91.3z M575.6,91.3h1.3l0.2,6.9v4.4h-1.5V91.3z M585.5,91.3h1.3v11.3h-1.5v-4.4L585.5,91.3z M588.8,98.5v-0.2
		c0-0.6,0.1-1.2,0.3-1.7c0.2-0.5,0.4-1,0.8-1.4c0.3-0.4,0.7-0.7,1.2-0.9c0.5-0.2,1-0.3,1.6-0.3c0.6,0,1.1,0.1,1.6,0.3
		c0.5,0.2,0.9,0.5,1.2,0.9c0.3,0.4,0.6,0.8,0.8,1.4c0.2,0.5,0.3,1.1,0.3,1.7v0.2c0,0.6-0.1,1.2-0.3,1.7s-0.4,1-0.8,1.4
		c-0.3,0.4-0.7,0.7-1.2,0.9c-0.5,0.2-1,0.3-1.6,0.3c-0.6,0-1.1-0.1-1.6-0.3c-0.5-0.2-0.9-0.5-1.2-0.9c-0.3-0.4-0.6-0.8-0.8-1.4
		S588.8,99.1,588.8,98.5z M590.3,98.3v0.2c0,0.4,0,0.8,0.1,1.2c0.1,0.4,0.2,0.7,0.4,1c0.2,0.3,0.5,0.5,0.7,0.7
		c0.3,0.2,0.6,0.2,1,0.2c0.4,0,0.7-0.1,1-0.2c0.3-0.2,0.5-0.4,0.7-0.7c0.2-0.3,0.3-0.6,0.4-1c0.1-0.4,0.2-0.8,0.2-1.2v-0.2
		c0-0.4-0.1-0.8-0.2-1.2c-0.1-0.4-0.2-0.7-0.4-1c-0.2-0.3-0.4-0.5-0.7-0.7c-0.3-0.2-0.6-0.2-1-0.2c-0.4,0-0.7,0.1-1,0.2
		c-0.3,0.2-0.5,0.4-0.7,0.7c-0.2,0.3-0.3,0.6-0.4,1C590.3,97.5,590.3,97.9,590.3,98.3z M599.7,95.5v7h-1.4v-8.4h1.4L599.7,95.5z
		 M602.3,94.2l0,1.3c-0.1,0-0.2,0-0.3,0c-0.1,0-0.2,0-0.4,0c-0.3,0-0.6,0.1-0.9,0.2c-0.3,0.1-0.5,0.2-0.6,0.4
		c-0.2,0.2-0.3,0.4-0.4,0.7c-0.1,0.3-0.2,0.5-0.2,0.8l-0.4,0.2c0-0.5,0-1,0.1-1.4c0.1-0.4,0.3-0.8,0.5-1.2c0.2-0.3,0.5-0.6,0.8-0.8
		c0.3-0.2,0.7-0.3,1.2-0.3c0.1,0,0.2,0,0.4,0C602.1,94.1,602.2,94.2,602.3,94.2z M606.9,102.8c-0.6,0-1.1-0.1-1.6-0.3
		c-0.5-0.2-0.9-0.5-1.2-0.8c-0.3-0.4-0.6-0.8-0.8-1.3s-0.3-1-0.3-1.6v-0.3c0-0.7,0.1-1.3,0.3-1.8c0.2-0.5,0.5-1,0.8-1.4
		c0.3-0.4,0.7-0.7,1.2-0.8c0.4-0.2,0.9-0.3,1.4-0.3c0.6,0,1.1,0.1,1.5,0.3c0.4,0.2,0.8,0.5,1.1,0.9c0.3,0.4,0.5,0.8,0.6,1.3
		c0.1,0.5,0.2,1,0.2,1.6v0.6h-6.2v-1.2h4.8v-0.1c0-0.4-0.1-0.7-0.2-1.1c-0.1-0.4-0.3-0.6-0.6-0.9c-0.3-0.2-0.7-0.3-1.2-0.3
		c-0.3,0-0.6,0.1-0.9,0.2c-0.3,0.1-0.5,0.3-0.7,0.6c-0.2,0.3-0.3,0.6-0.5,1c-0.1,0.4-0.2,0.8-0.2,1.3v0.3c0,0.4,0.1,0.8,0.2,1.1
		c0.1,0.3,0.3,0.6,0.5,0.9c0.2,0.3,0.5,0.5,0.8,0.6c0.3,0.1,0.7,0.2,1.1,0.2c0.5,0,0.9-0.1,1.3-0.3c0.4-0.2,0.7-0.5,0.9-0.8l0.9,0.7
		c-0.2,0.3-0.4,0.5-0.7,0.8c-0.3,0.2-0.6,0.4-1,0.6C608,102.7,607.5,102.8,606.9,102.8z"/>
	<path class="st0" d="M530.7,104.1h80v0.8h-80V104.1z"/>
</g>
<g>
	<path class="st3" d="M213.4,102.7l-0.3-0.5c0.1,0.2,0.1,0.3,0.2,0.4C213.3,102.6,213.4,102.7,213.4,102.7z"/>
	<path class="st0" d="M221.6,33.7c21.1,12.6,28,39.8,15.4,61c-4.5,7.5-10.9,13.3-18.2,16.9l3.8,6.2c1.8-1.1,3.5-2.1,5.4-3.2
		c0.8-0.5,2.1-0.8,2.9-0.5c5,2.1,9.9,4.3,14.8,6.6c3.4,1.6,4.6,1.4,6.7-1.9c2.3-3.8,4.6-7.7,6.9-11.6c2.4-4,4.8-8.1,7.2-12.1
		c1.3-2.1,1.1-3.8-1-5.4c-4.3-3.3-8.4-6.7-12.7-10c-1.6-1.2-2.4-2.4-2.1-4.5c0.4-3.3,0.2-6.6,0.5-9.9c0.1-1.2,0.8-2.7,1.7-3.4
		c3.8-3,7.8-5.8,11.7-8.8c2.9-2.1,3.2-3.5,1.5-6.5c-4.2-7.6-8.4-15.2-12.7-22.8c-1.5-2.6-3.2-3.2-6-2c-1.7,0.8-3.3,1.8-5.1,2.6
		c-3.5,1.7-7,4.8-10.4,4.7c-3.4-0.2-6.8-3.4-10.1-5.5c-1-0.6-1.8-2.1-1.9-3.2c-0.5-5.1-0.7-10.2-1.1-15.2c-0.2-2.6-1.1-4.6-4.3-4.7
		c-9-0.1-18-0.2-27-0.3c-2.7-0.1-4.1,1.1-4.4,3.8c-0.6,5.1-1.5,10.1-2,15.1c-0.2,1.6-0.8,2.3-2.3,3c-2.3,1.1-4.6,2.3-6.8,3.8
		l2.7,8.8C188.4,25.7,206.5,24.7,221.6,33.7z"/>
	<path class="st0" d="M6.4,62.6h6.8l8.7,16.7h6.8l-9.1-17.6c2.1-0.9,3.8-2.2,5-4.1c1.3-1.9,2-4,2-6.4c0-3.2-1.1-5.8-3.4-8.1
		c-2.2-2.2-4.9-3.4-8.1-3.4H0.4v39.6h6C6.4,79.3,6.4,62.6,6.4,62.6z M6.4,45.8H15c1.5,0,2.8,0.5,3.9,1.6c1,1.1,1.6,2.3,1.6,3.9
		c0,1.5-0.5,2.8-1.6,3.8c-1,1.1-2.3,1.6-3.9,1.6H6.4V45.8z"/>
	<polygon class="st0" points="52.2,73.3 38.1,73.3 38.1,62.5 49,62.5 49,56.5 38.1,56.5 38.1,45.8 52.2,45.8 52.2,39.8 32.1,39.8 
		32.1,79.3 52.2,79.3 	"/>
	<path class="st0" d="M83.2,51.3c0-3.2-1.1-5.8-3.4-8.1c-2.2-2.2-4.9-3.4-8.1-3.4H57.1v39.6h6V62.6h8.6c3.1,0,5.8-1.1,8.1-3.3
		C82.1,57.1,83.2,54.4,83.2,51.3z M75.6,55.1c-1.1,1.1-2.3,1.6-3.9,1.6h-8.6V45.8h8.6c1.5,0,2.8,0.5,3.9,1.6c1,1.1,1.6,2.3,1.6,3.9
		C77.1,52.7,76.6,54,75.6,55.1z"/>
	<path class="st0" d="M85.7,70.1h13.4v9.2h6V39.8h-7.4L72.8,79.3h7.1L85.7,70.1z M99.1,48.9v15.2h-9.7L99.1,48.9z"/>
	<rect x="112" y="39.8" class="st0" width="6" height="39.5"/>
	<path class="st0" d="M152.4,79.3l-9.1-17.6c2.1-0.9,3.8-2.2,5-4.1c1.3-1.9,2-4,2-6.4c0-3.2-1.1-5.8-3.4-8.1
		c-2.2-2.2-4.9-3.4-8.1-3.4h-14.6v39.6h6V62.6h6.8l8.7,16.7H152.4z M138.8,56.7h-8.6V45.8h8.6c1.5,0,2.8,0.5,3.9,1.6
		c1,1.1,1.6,2.3,1.6,3.9c0,1.5-0.5,2.8-1.6,3.8C141.6,56.1,140.3,56.7,138.8,56.7z"/>
	<path class="st0" d="M7.8,92.7c-3-0.8-4.5-1.9-4.4-3.3c0.1-1.2,0.6-2,1.7-2.5c0.7-0.3,1.6-0.4,2.6-0.4c1.4,0.1,2.6,0.5,3.3,1.4
		l2.5-2.3c-1.4-1.5-3.3-2.3-5.6-2.5c-1.9-0.1-3.6,0.3-5,1.1c-1.8,1.1-2.8,2.8-2.9,5c-0.2,3.1,2.1,5.4,6.8,6.7c3,0.8,4.5,2,4.4,3.3
		c-0.1,0.7-0.4,1.4-1.1,2c-0.8,0.7-1.9,1-3.2,0.9c-0.8-0.1-1.6-0.3-2.3-0.6c-0.8-0.4-1.3-1-1.6-1.7L0,101.1c0.5,1.4,1.5,2.5,2.9,3.2
		c1.3,0.7,2.6,1.1,4,1.1c0.2,0,0.3,0,0.4,0c1.9,0,3.6-0.6,5-1.7c1.5-1.2,2.3-2.7,2.3-4.4c0.1-1.3-0.3-2.3-1.1-3.4
		C12.5,94.6,10.6,93.5,7.8,92.7z"/>
	<path class="st0" d="M27.4,83.1c-3.1,0-5.7,1.1-7.9,3.3s-3.3,4.9-3.3,7.9s1.1,5.7,3.3,7.9s4.9,3.3,7.9,3.3s5.7-1.1,7.9-3.3
		s3.3-4.9,3.3-7.9s-1.1-5.7-3.3-7.9C33.1,84.2,30.5,83.1,27.4,83.1z M32.9,99.9c-1.5,1.5-3.4,2.3-5.6,2.3s-4-0.8-5.6-2.3
		c-1.5-1.5-2.3-3.4-2.3-5.6s0.8-4,2.3-5.6c1.5-1.5,3.4-2.3,5.6-2.3s4,0.8,5.6,2.3c1.5,1.5,2.3,3.4,2.3,5.6S34.5,98.4,32.9,99.9z"/>
	<polygon class="st0" points="44.5,83.4 41.2,83.4 41.2,105.3 52.4,105.3 52.4,102 44.5,102 	"/>
	<path class="st0" d="M67.6,97.7c0,1.3-0.4,2.3-1.3,3.2c-0.9,0.9-1.9,1.3-3.2,1.3c-1.3,0-2.3-0.4-3.2-1.3s-1.3-1.9-1.3-3.2V83.3
		h-3.3v14.4c0,2.1,0.8,4,2.3,5.5c1.5,1.5,3.4,2.3,5.5,2.3c2.1,0,4-0.8,5.5-2.3c1.5-1.5,2.3-3.4,2.3-5.5V83.3h-3.3V97.7z"/>
	<polygon class="st0" points="73.9,86.7 78.6,86.7 78.6,105.3 82,105.3 82,86.7 86.6,86.7 86.6,83.4 73.9,83.4 	"/>
	<rect x="89.6" y="83.4" class="st0" width="3.3" height="22"/>
	<path class="st0" d="M106.6,83.1c-3.1,0-5.7,1.1-7.9,3.3s-3.3,4.9-3.3,7.9s1.1,5.7,3.3,7.9s4.9,3.3,7.9,3.3c3.1,0,5.7-1.1,7.9-3.3
		c2.2-2.2,3.3-4.9,3.3-7.9s-1.1-5.7-3.3-7.9C112.4,84.2,109.8,83.1,106.6,83.1z M112.2,99.9c-1.5,1.5-3.4,2.3-5.6,2.3
		c-2.2,0-4-0.8-5.6-2.3c-1.5-1.5-2.3-3.4-2.3-5.6s0.8-4,2.3-5.6c1.5-1.5,3.4-2.3,5.6-2.3c2.2,0,4,0.8,5.6,2.3
		c1.6,1.5,2.3,3.4,2.3,5.6S113.8,98.4,112.2,99.9z"/>
	<polygon class="st0" points="133.2,99.1 123.8,83.4 120.3,83.4 120.3,105.3 123.6,105.3 123.6,89.6 133,105.3 136.5,105.3 
		136.5,83.4 133.2,83.4 	"/>
	<path class="st0" d="M146.8,92.7c-3-0.8-4.5-1.9-4.4-3.3c0.1-1.2,0.6-2,1.7-2.5c0.7-0.3,1.6-0.4,2.6-0.4c1.4,0.1,2.6,0.5,3.3,1.4
		l2.5-2.3c-1.4-1.5-3.3-2.3-5.6-2.5c-1.9-0.1-3.6,0.3-5,1.1c-1.8,1.1-2.8,2.8-2.9,5c-0.2,3.1,2.1,5.4,6.8,6.7c3,0.8,4.5,2,4.4,3.3
		c-0.1,0.7-0.4,1.4-1.1,2c-0.8,0.7-1.9,1-3.2,0.9c-0.8-0.1-1.6-0.3-2.3-0.6c-0.8-0.4-1.3-1-1.6-1.7l-3.1,1.1
		c0.5,1.4,1.5,2.5,2.9,3.2c1.3,0.7,2.6,1.1,4,1.1c0.2,0,0.3,0,0.4,0c1.9,0,3.6-0.6,5-1.7c1.5-1.2,2.3-2.7,2.3-4.4
		c0.1-1.3-0.3-2.3-1.1-3.4C151.4,94.6,149.5,93.5,146.8,92.7z"/>
	<path class="st0" d="M151.6,39.6c-0.7,0-1.4,0.3-1.8,0.8c-0.5,0.5-0.8,1.1-0.8,1.8c0,0.7,0.3,1.4,0.8,1.9c0.5,0.5,1.1,0.8,1.9,0.8
		s1.4-0.3,1.9-0.8s0.8-1.1,0.8-1.9s-0.3-1.4-0.8-1.8C153,39.8,152.4,39.6,151.6,39.6z M153.2,43.8c-0.4,0.5-1,0.7-1.6,0.7
		s-1.1-0.2-1.6-0.7c-0.4-0.4-0.7-1-0.7-1.6c0-0.6,0.2-1.1,0.7-1.6c0.4-0.5,1-0.7,1.6-0.7s1.1,0.2,1.6,0.7c0.4,0.4,0.7,1,0.7,1.6
		C153.9,42.8,153.7,43.3,153.2,43.8z"/>
	<path class="st0" d="M152.8,43.4v-0.2V43c0-0.2-0.1-0.3-0.2-0.5c-0.1-0.2-0.3-0.3-0.5-0.3c0.2-0.1,0.3-0.1,0.4-0.2
		c0.2-0.1,0.3-0.3,0.3-0.6c0-0.4-0.2-0.6-0.5-0.7c-0.2-0.1-0.4-0.1-0.8-0.1h-1v2.9h0.5v-1.1h0.4c0.3,0,0.5,0.1,0.6,0.1
		c0.2,0.1,0.3,0.3,0.3,0.7v0.2v0.1v0.1v0.1h0.5v-0.1L152.8,43.4z M152,42.1c-0.1,0.1-0.3,0.1-0.5,0.1h-0.5v-1h0.4
		c0.3,0,0.5,0.1,0.6,0.1c0.1,0.1,0.2,0.2,0.2,0.4S152.3,42,152,42.1z"/>
	<polygon class="st0" points="226.6,15.9 228.1,15.9 228.1,21 228.7,21 228.7,15.9 230.2,15.9 230.2,15.2 226.6,15.2 	"/>
	<path class="st0" d="M233.3,19.3c-0.1,0.4-0.2,0.7-0.3,0.9c-0.1-0.2-0.1-0.5-0.2-0.8l-1.1-4.1h-0.9V21h0.6v-5l1.3,5h0.6l1.4-4.9V21
		h0.6v-5.8h-0.8L233.3,19.3z"/>
	<g>
		<path class="st4" d="M209.5,39.6h-50.3c0.5,1.5,0.8,3,1,4.3c0.2,1.4,0.3,2.9,0.3,4.6v48.3c0,1.8-0.1,3.4-0.3,4.7
			c-0.2,1.3-0.5,2.7-1,4.2h21.9c-0.5-1.5-0.8-2.9-1-4.3c-0.2-1.4-0.3-2.9-0.3-4.6V82.3h29.6c10.6,0,15.9-4.5,15.9-13.5V53.1
			C225.4,44.1,220.1,39.6,209.5,39.6z M206.6,67.8c0,2.4-0.3,4-1,4.8s-2,1.2-4.1,1.2h-21.6V48h21.6c2.1,0,3.4,0.4,4.1,1.2
			c0.6,0.8,1,2.4,1,4.9V67.8z"/>
		<path class="st4" d="M203.7,97.9c0.9-0.1,1.5-0.4,1.9-0.8c0.4-0.4,0.5-1,0.5-1.8v-3.2c0-1-0.3-1.8-0.8-2.3
			c-0.5-0.5-1.3-0.8-2.3-0.8h-12.5c0.1,0.4,0.2,0.7,0.2,1c0.1,0.3,0.1,0.7,0.1,1.1v11.5c0,0.4,0,0.8-0.1,1.1c-0.1,0.3-0.1,0.6-0.2,1
			h5.2c-0.1-0.4-0.2-0.7-0.2-1c-0.1-0.3-0.1-0.7-0.1-1.1v-4.9h3.4l2.7,6.9h5.3c-0.5-0.4-0.8-1-1.1-1.7L203.7,97.9z M201.7,94.8
			c0,0.4-0.1,0.7-0.2,0.8c-0.1,0.2-0.3,0.2-0.6,0.2h-5.4v-4.7h5.4c0.5,0,0.8,0.4,0.8,1V94.8z"/>
		<path class="st4" d="M220.9,89h-9.3c-2.1,0-3.2,1-3.2,3.2v9.3c0,2.1,1,3.2,3.2,3.2h9.3c2.1,0,3.1-1,3.1-3.2v-9.3
			C224.1,90.1,223.1,89,220.9,89z M219.5,101.8c0,0.4-0.1,0.6-0.2,0.7c-0.2,0.2-0.4,0.2-0.7,0.2H214c-0.3,0-0.4-0.1-0.6-0.1
			c-0.1,0-0.1-0.1-0.2-0.1c-0.1-0.1-0.1-0.2-0.2-0.4c0-0.1-0.1-0.2-0.1-0.4V92c0-0.4,0.1-0.6,0.2-0.7c0.2-0.2,0.4-0.2,0.7-0.2h4.6
			c0.4,0,0.6,0.1,0.7,0.2c0.1,0.1,0.2,0.4,0.2,0.7L219.5,101.8L219.5,101.8L219.5,101.8z"/>
	</g>
</g>
</svg>
