<svg width="36" height="36" viewBox="0 0 36 36" fill="none" xmlns="http://www.w3.org/2000/svg">
<rect width="36" height="36" rx="4.5" fill="#7D7EA3"/>
<path d="M3.375 4.1831V31.8159C3.37519 31.8759 3.39307 31.9344 3.4264 31.9843C3.45974 32.0341 3.50704 32.073 3.56238 32.096C3.61772 32.1191 3.67864 32.1253 3.73749 32.1138C3.79634 32.1024 3.85051 32.0739 3.8932 32.0318L18.2812 18.0002L3.8932 3.96724C3.85051 3.92515 3.79634 3.8966 3.73749 3.88517C3.67864 3.87374 3.61772 3.87994 3.56238 3.903C3.50704 3.92605 3.45974 3.96493 3.4264 4.01476C3.39307 4.06459 3.37519 4.12315 3.375 4.1831ZM24.3141 12.2346L6.27328 2.29521L6.26203 2.28888C5.95125 2.12013 5.65594 2.5406 5.91047 2.78529L20.0524 16.3078L24.3141 12.2346ZM5.91188 33.2151C5.65594 33.4598 5.95125 33.8803 6.26344 33.7115L6.27469 33.7052L24.3141 23.7658L20.0524 19.6912L5.91188 33.2151ZM31.597 16.2424L26.5591 13.4679L21.8222 18.0002L26.5591 22.5304L31.597 19.758C32.9674 19.0008 32.9674 16.9997 31.597 16.2424Z" fill="white"/>
<rect x="0.5" y="0.5" width="35" height="35" rx="4" stroke="#7D7EA3"/>
</svg>
