<svg width="296" height="100" viewBox="0 0 296 100" fill="none" xmlns="http://www.w3.org/2000/svg">
<g clip-path="url(#clip0_2_3)">
<path fill-rule="evenodd" clip-rule="evenodd" d="M283.435 99.8826H12.5646C5.65996 99.8826 0 94.238 0 87.4696V12.5304C0 5.64455 5.65996 0 12.5646 0H283.435C290.34 0 296 5.64455 296 12.5304V87.4696C296 94.238 290.34 99.8826 283.435 99.8826Z" fill="black"/>
<path fill-rule="evenodd" clip-rule="evenodd" d="M283.435 2.02969C289.205 2.02969 293.956 6.76843 293.956 12.522V87.4612C293.956 93.2148 289.205 97.9535 283.435 97.9535H12.5646C6.79532 97.9535 2.04364 93.2148 2.04364 87.4612V12.5304C2.04364 6.77682 6.79532 2.03808 12.5646 2.03808H283.435V2.02969ZM283.435 0H12.5646C5.65996 0 0 5.64455 0 12.5304V87.4696C0 94.3554 5.65996 100 12.5646 100H283.435C290.34 100 296 94.3554 296 87.4696V12.5304C296 5.64455 290.34 0 283.435 0Z" fill="#A6A6A6"/>
<path d="M120.289 68.1959H109.902L107.472 75.6856H103.057L112.997 48.3603H117.413L127.353 75.6856H122.938L120.289 68.1959ZM111.013 64.8914H119.406L115.209 52.7719H114.991L111.013 64.8914Z" fill="white"/>
<path d="M148.791 65.772C148.791 71.945 145.477 75.9037 140.397 75.9037C137.748 76.1218 135.318 74.5785 134.208 72.3811V82.2947H130.011V55.8584H133.989V59.163C135.318 56.9571 137.748 55.6404 140.397 55.6404C145.258 55.4223 148.791 59.6075 148.791 65.772ZM144.375 65.772C144.375 61.8049 142.39 59.163 139.077 59.163C135.982 59.163 133.779 61.8049 133.779 65.772C133.779 69.7392 135.99 72.3811 139.077 72.3811C142.39 72.3811 144.375 69.7392 144.375 65.772Z" fill="white"/>
<path d="M170.665 65.772C170.665 71.945 167.352 75.9037 162.272 75.9037C159.623 76.1218 157.192 74.5785 156.082 72.3811V82.2947H151.885V55.8584H155.863V59.163C157.192 56.9571 159.623 55.6404 162.272 55.6404C167.352 55.4223 170.665 59.6075 170.665 65.772ZM166.468 65.772C166.468 61.8049 164.484 59.163 161.17 59.163C158.075 59.163 155.872 61.8049 155.872 65.772C155.872 69.7392 158.084 72.3811 161.17 72.3811C164.484 72.3811 166.468 69.7392 166.468 65.772Z" fill="white"/>
<path d="M185.248 67.9779C185.467 70.6198 188.124 72.3811 191.875 72.3811C195.407 72.3811 197.838 70.6198 197.838 68.1959C197.838 65.9901 196.29 64.8914 192.758 64.0107L189.226 63.1301C184.146 61.8049 181.935 59.6075 181.935 55.8584C181.935 51.2287 186.131 47.9242 191.875 47.9242C197.619 47.9242 201.597 51.2287 201.816 55.8584H197.619C197.401 53.2165 195.189 51.4552 191.875 51.4552C188.562 51.4552 186.35 53.2165 186.35 55.6404C186.35 57.6197 187.897 58.7268 191.429 59.6075L194.524 60.2701C200.05 61.5952 202.48 63.7927 202.48 67.7598C202.48 72.8256 198.284 76.1302 191.875 76.1302C185.467 76.1302 181.716 73.0437 181.489 67.9779H185.248Z" fill="white"/>
<path d="M210.874 51.0107V55.6404H214.633V58.9449H210.874V69.9656C210.874 71.7269 211.538 72.3895 213.304 72.3895H214.633V75.694C213.968 75.9121 213.085 75.9121 212.421 75.9121C208.443 75.9121 206.896 74.3689 206.896 70.6282V59.1714H204.019V55.8668H206.896V51.2371H210.874V51.019V51.0107Z" fill="white"/>
<path d="M217.063 65.772C217.063 59.5991 220.823 55.6404 226.567 55.6404C232.311 55.6404 236.07 59.6075 236.07 65.772C236.07 71.9366 232.311 75.9037 226.567 75.9037C220.823 75.9037 217.063 71.9366 217.063 65.772ZM231.865 65.772C231.865 61.3688 229.88 58.9449 226.567 58.9449C223.253 58.9449 221.268 61.3688 221.268 65.772C221.268 70.1753 223.253 72.5992 226.567 72.5992C229.88 72.5992 231.865 69.9572 231.865 65.772Z" fill="white"/>
<path d="M239.375 55.6403H243.353V59.163C243.799 56.9571 246.002 55.4139 248.214 55.6403C248.66 55.6403 249.097 55.6404 249.543 55.8584V59.6075C248.879 59.3894 248.214 59.3894 247.777 59.3894C245.565 59.3894 243.58 61.1507 243.58 63.3565V75.9121H239.384V55.6403H239.375Z" fill="white"/>
<path d="M268.541 69.7392C268.095 73.2618 264.345 75.9121 259.921 75.9121C254.177 75.9121 250.418 71.945 250.418 65.7804C250.418 59.6159 253.95 55.4223 259.694 55.4223C265.438 55.4223 268.751 59.1713 268.751 65.3359V66.6611H254.614V66.8791C254.396 69.7475 256.38 72.163 259.257 72.6076H259.921C261.906 72.8256 263.899 71.7269 264.563 69.7392H268.541ZM254.623 63.7927H264.563C264.782 61.1507 262.578 58.9449 259.921 58.7268H259.475C256.826 58.7268 254.614 60.9326 254.614 63.7927H254.623Z" fill="white"/>
<path d="M106.976 23.9705C110.743 23.7189 113.754 26.4782 114.007 29.9925V31.2505C114.007 36.0228 111.492 38.7822 106.976 38.7822H101.45V23.7189H106.976V23.9705ZM103.965 37.0209H106.723C109.238 37.2725 111.492 35.2596 111.744 32.5002V31.4938C111.997 28.986 110.239 26.4698 107.724 26.2182H103.957V37.0125L103.965 37.0209Z" fill="white"/>
<path d="M116.774 33.2551C116.521 30.2441 118.531 27.7363 121.542 27.4847C124.553 27.2331 127.067 29.246 127.32 32.257V33.2634C127.572 36.2744 125.562 38.7822 122.551 39.0338C119.54 39.2854 117.026 37.2725 116.774 34.2615V33.2551ZM125.057 33.2551C125.057 30.7473 124.057 29.4892 122.047 29.4892C120.037 29.4892 119.036 30.9989 119.036 33.2551C119.036 35.7628 120.037 37.2725 122.047 37.2725C124.057 37.2725 125.057 35.7628 125.057 33.2551Z" fill="white"/>
<path d="M141.634 39.0254H139.371L137.109 30.7389H136.857L134.594 39.0254H132.332L129.321 27.7279H131.584L133.594 36.266H133.846L136.108 27.7279H138.37L140.633 36.266H140.885L142.895 27.7279H145.157L141.642 39.0254H141.634Z" fill="white"/>
<path d="M147.411 27.7363H149.674V29.4976H149.926C150.431 28.2395 151.936 27.4931 153.189 27.4931C155.199 27.2415 156.957 28.7512 157.209 31.0073V39.0422H154.947V32.2654C154.947 30.5041 154.19 29.506 152.432 29.506C150.927 29.506 149.674 30.5125 149.674 32.0138V39.0422H147.411V27.7447V27.7363Z" fill="white"/>
<path d="M160.472 23.2156H162.734V39.0338H160.472V23.2156Z" fill="white"/>
<path d="M165.745 33.2551C165.493 30.2441 167.503 27.7363 170.514 27.4847C173.524 27.2331 176.039 29.246 176.291 32.257V33.2634C176.544 36.2744 174.534 38.7822 171.523 39.0338C168.512 39.2854 165.998 37.2725 165.745 34.2615V33.2551ZM174.281 33.2551C174.281 30.7473 173.281 29.4892 171.271 29.4892C169.261 29.4892 168.26 30.9989 168.26 33.2551C168.26 35.7628 169.261 37.2725 171.271 37.2725C173.028 37.2725 174.281 35.7628 174.281 33.2551Z" fill="white"/>
<path d="M178.806 35.7628C178.806 33.7583 180.311 32.5002 183.078 32.5002L186.089 32.2486V31.2421C186.089 29.9841 185.332 29.4808 183.827 29.4808C182.574 29.4808 181.817 29.9841 181.565 30.7389H179.302C179.554 28.7344 181.312 27.4763 183.827 27.4763C186.585 27.4763 188.351 28.986 188.351 31.2421V39.0254H186.089V37.5157H185.837C185.08 38.7738 183.827 39.277 182.321 39.277C180.564 39.5286 178.806 38.019 178.554 36.266C178.722 36.0983 178.806 35.9306 178.806 35.7628ZM186.089 34.7564V33.7499L183.331 34.0015C181.825 34.0015 181.068 34.7564 181.068 35.5112C181.068 36.5177 182.069 37.0209 183.078 37.0209C184.584 37.5241 185.837 36.5177 186.089 34.7647C186.089 34.9325 186.089 34.9325 186.089 34.7647V34.7564Z" fill="white"/>
<path d="M191.11 33.2551C191.11 29.7408 192.868 27.4847 195.878 27.4847C197.384 27.4847 198.637 28.2395 199.394 29.4892H199.646V23.2156H201.908V39.0338H199.646V37.2725H199.394C198.637 38.5306 197.384 39.277 195.878 39.277C193.12 39.277 191.11 37.0209 191.11 33.2551ZM193.625 33.2551C193.625 35.7628 194.878 37.0209 196.635 37.0209C198.393 37.0209 199.646 35.5112 199.646 33.2551C199.646 30.9989 198.393 29.4892 196.635 29.4892C194.625 29.4892 193.625 30.9989 193.625 33.2551Z" fill="white"/>
<path d="M210.949 33.2551C210.697 30.2441 212.707 27.7363 215.718 27.4847C218.728 27.2331 221.243 29.246 221.495 32.257V33.2634C221.748 36.2744 219.738 38.7822 216.727 39.0338C213.716 39.2854 211.202 37.2725 210.949 34.2615V33.2551ZM219.485 33.2551C219.485 30.7473 218.485 29.4892 216.475 29.4892C214.465 29.4892 213.464 30.9989 213.464 33.2551C213.464 35.7628 214.465 37.2725 216.475 37.2725C218.232 37.2725 219.485 35.7628 219.485 33.2551Z" fill="white"/>
<path d="M224.767 27.7363H227.029V29.4976H227.282C227.786 28.2395 229.292 27.4931 230.545 27.4931C232.555 27.2415 234.312 28.7512 234.565 31.0073V39.0422H232.302V32.2654C232.302 30.5041 231.545 29.506 229.788 29.506C228.282 29.506 227.029 30.5125 227.029 32.0138V39.0422H224.767V27.7447V27.7363Z" fill="white"/>
<path d="M246.869 24.9686V27.7279H249.383V29.7325H246.869V35.5028C246.869 36.7609 247.373 37.2641 248.374 37.2641H249.131V39.0254H247.878C245.363 39.0254 244.362 38.2706 244.362 36.0144V29.7408H242.605V27.9795H244.362V24.9686H246.877H246.869Z" fill="white"/>
<path d="M252.394 23.2156H254.656V29.4892H254.909C255.413 28.2312 256.919 27.2331 258.424 27.4847C260.434 27.4847 262.192 28.9944 262.444 30.9989V39.0338H260.182V32.257C260.182 30.4957 259.425 29.4976 257.667 29.4976C256.162 29.4976 254.909 30.5041 254.909 32.0054V39.0338H252.646L252.394 23.2156Z" fill="white"/>
<path d="M275.244 36.0144C274.739 38.019 272.486 39.5286 270.223 39.277C267.465 39.277 264.95 37.0209 264.95 34.2531V33.4983C264.446 30.7389 266.456 27.9795 269.475 27.7279H270.232C273.495 27.7279 275.252 29.9841 275.252 33.4983V34.2531H267.212C266.96 36.0144 268.213 37.2641 269.971 37.5157H270.223C271.224 37.7673 272.486 37.0125 272.982 36.2577L275.244 36.006V36.0144ZM267.204 32.2486H272.982C272.982 30.7389 271.981 29.4892 270.467 29.2376H270.215C268.709 29.4892 267.204 30.7473 267.204 32.2486Z" fill="white"/>
<path d="M74.5298 52.5371C74.5298 46.6577 77.65 41.1306 82.8474 38.019C79.7272 33.5234 74.5298 30.7557 68.9792 30.4118C63.0837 29.7241 57.5415 33.8673 54.4214 33.8673C51.3013 33.8673 46.7935 30.4118 41.9409 30.4118C35.3558 30.7557 29.4604 34.2112 26.3403 39.7467C19.7552 51.1532 24.6078 68.4391 31.1929 77.774C34.313 82.2696 38.1227 87.4528 42.9753 87.4528C47.8279 87.1089 49.5604 84.3412 55.4558 84.3412C61.3513 84.3412 62.7389 87.4528 67.9363 87.4528C73.1338 87.4528 76.2539 82.9573 79.374 78.1179C81.8045 75.0063 83.537 71.2069 84.5714 67.3991C78.3312 65.3275 74.5214 59.1042 74.5214 52.5371H74.5298Z" fill="white"/>
<path d="M64.8246 24.5324C67.6 21.0769 68.9876 16.9253 68.6344 12.4298C64.4714 12.7736 60.3168 14.8536 57.5415 18.3091C54.7662 21.4208 53.3786 25.5724 53.7318 30.0595C58.2396 30.0595 62.0493 27.9879 64.8246 24.5324Z" fill="white"/>
</g>
<defs>
<clipPath id="clip0_2_3">
<rect width="296" height="100" fill="white"/>
</clipPath>
</defs>
</svg>
